<svg xmlns="http://www.w3.org/2000/svg" width="302.611" height="294.885" viewBox="0 0 302.611 294.885"><defs><style>.a{fill:#f89767;stroke:#fddcd5;}</style></defs><g transform="translate(0.5 -6.058)"><path class="a" d="M231.494,112.516a14.744,14.744,0,1,0-11.767-5.883l-24.2,33.814a14.686,14.686,0,0,0-14.61,3.218l-16.129-9.152a14.727,14.727,0,1,0-28.793,0l-16.129,9.152a14.706,14.706,0,1,0,4.372,7.679l16.129-9.152a14.69,14.69,0,0,0,20.049,0l16.129,9.152a14.728,14.728,0,1,0,26.164-5.749l24.2-33.814A14.682,14.682,0,0,0,231.494,112.516Zm0-20.619a5.891,5.891,0,1,1-5.891,5.891A5.9,5.9,0,0,1,231.494,91.9Zm-121.65,68.434a5.891,5.891,0,1,1,5.891-5.891A5.9,5.9,0,0,1,109.843,160.331Zm40.55-23.024a5.891,5.891,0,1,1,5.891-5.891A5.9,5.9,0,0,1,150.393,137.307Zm40.55,23.024a5.891,5.891,0,1,1,5.891-5.891A5.9,5.9,0,0,1,190.944,160.331Z" transform="translate(-39.086 -31.436)"/><path class="a" d="M246.706,238.548H12.5a3.665,3.665,0,0,1-3.661-3.661V52.613A3.665,3.665,0,0,1,12.5,48.952H33.325a4.418,4.418,0,0,0,0-8.836H12.5A12.512,12.512,0,0,0,0,52.613V234.887a12.512,12.512,0,0,0,12.5,12.5H42.961v9.723a10.057,10.057,0,0,0,10.046,10.046H97.231L76.413,307.8a4.418,4.418,0,1,0,7.864,4.028l22.882-44.674h48.848l22.882,44.674a4.418,4.418,0,1,0,7.864-4.028l-20.818-40.646H210.16a10.057,10.057,0,0,0,10.046-10.046v-9.723h26.5a4.418,4.418,0,0,0,0-8.836Zm-35.337,18.56a1.211,1.211,0,0,1-1.209,1.209H53.006a1.211,1.211,0,0,1-1.209-1.209v-9.723H211.369Z" transform="translate(0 -13.79)"/><path class="a" d="M83.489,35.163H283.16a3.665,3.665,0,0,1,3.661,3.661V80.832a4.418,4.418,0,0,0,8.836,0V38.824a12.512,12.512,0,0,0-12.5-12.5H188.6V17.642A11.1,11.1,0,0,0,177.511,6.558H150.638a11.1,11.1,0,0,0-11.085,11.084v8.684H83.489a4.418,4.418,0,0,0,0,8.836Zm64.9-17.521a2.251,2.251,0,0,1,2.249-2.248h26.873a2.251,2.251,0,0,1,2.249,2.248v8.684H148.39V17.642Z" transform="translate(-32.492)"/><path class="a" d="M101.82,267.576a4.418,4.418,0,0,0-4.418,4.418v39.04a4.418,4.418,0,0,0,4.418,4.418h17.924a4.418,4.418,0,0,0,4.418-4.418v-39.04a4.418,4.418,0,0,0-4.418-4.418Zm13.506,39.04h-9.088v-30.2h9.088Z" transform="translate(-40.024 -107.257)"/><path class="a" d="M170.655,229.248a4.418,4.418,0,0,0-4.418,4.418v61.619a4.418,4.418,0,0,0,4.418,4.418h17.924A4.418,4.418,0,0,0,193,295.285V233.666a4.418,4.418,0,0,0-4.418-4.418Zm13.507,61.619h-9.088V238.084h9.088Z" transform="translate(-68.31 -91.507)"/><path class="a" d="M239.491,267.576a4.418,4.418,0,0,0-4.418,4.418v39.04a4.418,4.418,0,0,0,4.418,4.418h17.924a4.418,4.418,0,0,0,4.418-4.418v-39.04a4.418,4.418,0,0,0-4.418-4.418ZM253,306.616h-9.088v-30.2H253Z" transform="translate(-96.595 -107.257)"/><path class="a" d="M308.327,311.832a4.418,4.418,0,0,0-4.418,4.418v12.97a4.418,4.418,0,0,0,4.418,4.418h17.924a4.418,4.418,0,0,0,0-8.836H312.745V316.25A4.418,4.418,0,0,0,308.327,311.832Z" transform="translate(-124.881 -125.442)"/><path class="a" d="M420.8,285.586l-25.346-43.9a57.775,57.775,0,1,0-57.129,16.3,58.063,58.063,0,0,0,15.039,1.992,57.02,57.02,0,0,0,13.005-1.5l25.341,43.9a16.795,16.795,0,1,0,29.09-16.795Zm-80.188-36.134a48.911,48.911,0,1,1,37.113-4.886A48.593,48.593,0,0,1,340.608,249.452Zm69.624,51.423a7.967,7.967,0,0,1-10.872-2.911l-24.381-42.24a57.993,57.993,0,0,0,13.776-7.963L413.144,290a7.951,7.951,0,0,1-2.911,10.872Z" transform="translate(-121.439 -56.672)"/><path class="a" d="M404.325,225.655a41.811,41.811,0,0,0-2.092-30.288,4.418,4.418,0,1,0-7.993,3.765,33.092,33.092,0,1,1-9.976-12.328,4.418,4.418,0,1,0,5.331-7.046,41.956,41.956,0,1,0,14.73,45.9Z" transform="translate(-132.438 -67.671)"/></g></svg>