<svg xmlns="http://www.w3.org/2000/svg" width="61" height="36.156" viewBox="0 0 61 36.156"><defs><style>.a{fill:#4980ff;stroke:#c1ddfe;}</style></defs><g transform="translate(0.5 -105.5)"><g transform="translate(0 106)"><path class="a" d="M49.336,141.156H10.664a10.655,10.655,0,0,1-7.5-3.078,10.409,10.409,0,0,1,0-14.938,10.668,10.668,0,0,1,5.749-2.934q0-.071,0-.144A14.078,14.078,0,0,1,22.969,106a13.919,13.919,0,0,1,7.991,2.5,14.085,14.085,0,0,1,4.053,4.341,10.544,10.544,0,0,1,15.954,7.342,10.664,10.664,0,0,1,5.874,2.954,10.409,10.409,0,0,1,0,14.938A10.656,10.656,0,0,1,49.336,141.156ZM10.664,123.578a7.032,7.032,0,1,0,0,14.062H49.336a7.032,7.032,0,1,0,0-14.062H47.578V121.82a7.024,7.024,0,0,0-11.953-5.012l-1.892,1.858-.974-2.467a10.533,10.533,0,0,0-20.337,3.862,9.521,9.521,0,0,0,.134,1.333l.315,2.182Z" transform="translate(0 -106)"/></g></g></svg>