<svg xmlns="http://www.w3.org/2000/svg" width="52.576" height="52.576" viewBox="0 0 52.576 52.576"><defs><style>.a{fill:#fdd266;}</style></defs><path class="a" d="M26.288,52.576A26.288,26.288,0,1,0,0,26.288,26.318,26.318,0,0,0,26.288,52.576Zm0-50.232A23.944,23.944,0,1,1,2.344,26.288,23.971,23.971,0,0,1,26.288,2.344Zm0,0"/><path class="a" d="M94.166,94.619a4.854,4.854,0,1,0-4.854-4.854A4.854,4.854,0,0,0,94.166,94.619Zm0-7.364a2.51,2.51,0,1,1-2.51,2.51A2.51,2.51,0,0,1,94.166,87.255Zm0,0" transform="translate(-74.358 -70.693)"/><path class="a" d="M164.953,177.721a4.854,4.854,0,1,0,4.854-4.854A4.854,4.854,0,0,0,164.953,177.721Zm7.364,0a2.51,2.51,0,1,1-2.51-2.51A2.51,2.51,0,0,1,172.317,177.721Zm0,0" transform="translate(-137.334 -143.922)"/><path class="a" d="M101.054,101.684a1.172,1.172,0,0,0,1.622-.341l16.569-25.4a1.172,1.172,0,1,0-1.963-1.281l-16.569,25.4A1.172,1.172,0,0,0,101.054,101.684Zm0,0" transform="translate(-83.69 -61.712)"/></svg>