<svg xmlns="http://www.w3.org/2000/svg" width="51.435" height="39" viewBox="0 0 51.435 39"><defs><style>.a{fill:#68e0a2;stroke:#d8f7e7;stroke-width:3px;}</style></defs><g transform="translate(-122.762 -84.5)"><g transform="translate(124.262 100.693)"><path class="a" d="M170.2,236H126.76c-1.38,0-2.5,1.481-2.5,3.307s1.118,3.307,2.5,3.307H170.2c1.38,0,2.5-1.481,2.5-3.307S171.578,236,170.2,236Z" transform="translate(-124.262 -236)"/></g><g transform="translate(124.262 86)"><path class="a" d="M170.2,86H126.76c-1.38,0-2.5,1.481-2.5,3.307s1.118,3.307,2.5,3.307H170.2c1.38,0,2.5-1.481,2.5-3.307S171.578,86,170.2,86Z" transform="translate(-124.262 -86)"/></g><g transform="translate(124.262 115.385)"><path class="a" d="M170.2,386H126.76c-1.38,0-2.5,1.481-2.5,3.307s1.118,3.307,2.5,3.307H170.2c1.38,0,2.5-1.481,2.5-3.307S171.578,386,170.2,386Z" transform="translate(-124.262 -386)"/></g></g></svg>