<svg xmlns="http://www.w3.org/2000/svg" width="43.202" height="48.828" viewBox="0 0 43.202 48.828"><defs><style>.a{fill:#f8a781;}</style></defs><path class="a" d="M31.407,48.828A1.907,1.907,0,0,1,29.5,46.921,17.377,17.377,0,0,1,46.857,29.564h2.861a17.322,17.322,0,0,1,5.716.964,1.907,1.907,0,1,1-1.256,3.6,13.518,13.518,0,0,0-4.46-.751H46.857A13.558,13.558,0,0,0,33.315,46.921a1.907,1.907,0,0,1-1.907,1.907ZM60.971,12.875A12.875,12.875,0,1,0,48.1,25.749,12.889,12.889,0,0,0,60.971,12.875Zm-3.815,0a9.06,9.06,0,1,1-9.06-9.06A9.07,9.07,0,0,1,57.157,12.875ZM70.794,37.384H65.072V31.662a1.907,1.907,0,0,0-3.815,0v5.722H55.535a1.907,1.907,0,1,0,0,3.815h5.722v5.722a1.907,1.907,0,0,0,3.815,0V41.2h5.722a1.907,1.907,0,1,0,0-3.815Z" transform="translate(-29.5)"/></svg>