<svg xmlns="http://www.w3.org/2000/svg" width="67.168" height="54.048" viewBox="0 0 67.168 54.048"><defs><style>.a{fill:#fc9fda;}</style></defs><g transform="translate(-3 -19.898)"><path class="a" d="M62.809,38.555l-14.34,8.276A4.88,4.88,0,0,0,45.6,44.7L29.269,40.321a10.99,10.99,0,0,0-8.23,1.015l-5.755,3.2V41.707a1.228,1.228,0,0,0-1.228-1.228H4.228A1.228,1.228,0,0,0,3,41.707V66.275A1.228,1.228,0,0,0,4.228,67.5h9.827a1.228,1.228,0,0,0,1.228-1.228V62.9a10.961,10.961,0,0,0,6.526,2.146H33.556a11.075,11.075,0,0,0,5.49-1.459L67.728,47.068a4.916,4.916,0,0,0-4.918-8.513ZM12.827,65.046H5.457V42.935h7.37ZM66.5,44.941,37.823,61.457a8.62,8.62,0,0,1-4.267,1.133H21.81a8.538,8.538,0,0,1-6.079-2.519l-.447-.447V47.339l6.948-3.86a8.546,8.546,0,0,1,6.4-.789l16.331,4.375a2.457,2.457,0,1,1-1.271,4.746L32.9,48.921a1.229,1.229,0,0,0-.636,2.373S43.9,54.359,44.336,54.359a4.832,4.832,0,0,0,4.878-5.119l14.82-8.556a2.457,2.457,0,0,1,3.342.888,2.5,2.5,0,0,1,.334,1.241A2.437,2.437,0,0,1,66.5,44.941Z" transform="translate(0 6.444)"/><path class="a" d="M41.74,47.481A14.74,14.74,0,1,0,27,32.74a14.74,14.74,0,0,0,14.74,14.74Zm0-27.024A12.284,12.284,0,1,1,29.457,32.74,12.284,12.284,0,0,1,41.74,20.457Z" transform="translate(5.481 1.898)"/><path class="a" d="M39.913,38.2a2.457,2.457,0,0,1-2.457-2.457,1.228,1.228,0,1,0-2.457,0,4.914,4.914,0,0,0,3.685,4.739v1.4a1.228,1.228,0,1,0,2.457,0v-1.4a4.9,4.9,0,0,0-1.228-9.653A2.457,2.457,0,1,1,42.37,28.37a1.228,1.228,0,1,0,2.457,0,4.913,4.913,0,0,0-3.685-4.739v-1.4a1.228,1.228,0,1,0-2.457,0v1.4a4.9,4.9,0,0,0,1.228,9.653,2.457,2.457,0,0,1,0,4.913Z" transform="translate(7.308 2.583)"/></g></svg>