<svg xmlns="http://www.w3.org/2000/svg" width="53.819" height="47.959" viewBox="0 0 53.819 47.959"><defs><style>.a{fill:#4980ff;}</style></defs><g transform="translate(0 -20.9)"><g transform="translate(0 20.9)"><path class="a" d="M48.239,24.98H44.861V22.3a1.4,1.4,0,0,0-2.8,0V24.98H28.318V22.3a1.4,1.4,0,0,0-2.8,0V24.98H11.636V22.3a1.4,1.4,0,0,0-2.8,0V24.98H5.594A5.673,5.673,0,0,0,0,30.657V63.251a5.594,5.594,0,0,0,5.594,5.608H48.225a5.591,5.591,0,0,0,5.594-5.594V30.657A5.651,5.651,0,0,0,48.239,24.98Zm2.79,38.272a2.8,2.8,0,0,1-2.776,2.8H5.594a2.788,2.788,0,0,1-2.79-2.79V30.657a2.852,2.852,0,0,1,2.79-2.874H8.832v2.033a1.4,1.4,0,0,0,2.8,0V27.783H25.515v2.033a1.4,1.4,0,0,0,2.8,0V27.783H42.057v2.033a1.4,1.4,0,0,0,2.8,0V27.783h3.379a2.852,2.852,0,0,1,2.79,2.874Z" transform="translate(0 -20.9)"/></g><g transform="translate(19.374 36.896)"><path class="a" d="M142.055,135H139.6a1.4,1.4,0,1,0,0,2.8h2.453a1.4,1.4,0,1,0,0-2.8Z" transform="translate(-138.2 -135)"/></g><g transform="translate(29.131 36.896)"><path class="a" d="M211.655,135H209.2a1.4,1.4,0,1,0,0,2.8h2.453a1.4,1.4,0,0,0,0-2.8Z" transform="translate(-207.8 -135)"/></g><g transform="translate(38.973 36.896)"><path class="a" d="M281.855,135H279.4a1.4,1.4,0,0,0,0,2.8h2.453a1.4,1.4,0,1,0,0-2.8Z" transform="translate(-278 -135)"/></g><g transform="translate(19.374 46.569)"><g transform="translate(0 0)"><path class="a" d="M142.055,204H139.6a1.4,1.4,0,1,0,0,2.8h2.453a1.4,1.4,0,1,0,0-2.8Z" transform="translate(-138.2 -204)"/></g></g><g transform="translate(9.533 46.569)"><g transform="translate(0 0)"><path class="a" d="M71.869,204H69.4a1.4,1.4,0,1,0,0,2.8h2.453a1.4,1.4,0,0,0,.014-2.8Z" transform="translate(-68 -204)"/></g></g><g transform="translate(29.131 46.569)"><g transform="translate(0 0)"><path class="a" d="M211.655,204H209.2a1.4,1.4,0,1,0,0,2.8h2.453a1.4,1.4,0,0,0,0-2.8Z" transform="translate(-207.8 -204)"/></g></g><g transform="translate(38.973 46.569)"><g transform="translate(0 0)"><path class="a" d="M281.855,204H279.4a1.4,1.4,0,0,0,0,2.8h2.453a1.4,1.4,0,1,0,0-2.8Z" transform="translate(-278 -204)"/></g></g><g transform="translate(19.374 56.102)"><g transform="translate(0 0)"><path class="a" d="M142.055,272H139.6a1.4,1.4,0,1,0,0,2.8h2.453a1.4,1.4,0,1,0,0-2.8Z" transform="translate(-138.2 -272)"/></g></g><g transform="translate(9.533 56.102)"><g transform="translate(0 0)"><path class="a" d="M71.869,272H69.4a1.4,1.4,0,1,0,0,2.8h2.453a1.4,1.4,0,0,0,.014-2.8Z" transform="translate(-68 -272)"/></g></g><g transform="translate(29.131 56.102)"><g transform="translate(0 0)"><path class="a" d="M211.655,272H209.2a1.4,1.4,0,1,0,0,2.8h2.453a1.4,1.4,0,0,0,0-2.8Z" transform="translate(-207.8 -272)"/></g></g></g></svg>