<svg xmlns="http://www.w3.org/2000/svg" width="41.593" height="52.975" viewBox="0 0 41.593 52.975"><defs><style>.a{fill:#43d88b;}</style></defs><g transform="translate(-13.75)"><path class="a" d="M52.136,0H16.957A3.211,3.211,0,0,0,13.75,3.207v46.56a3.211,3.211,0,0,0,3.207,3.207H52.136a3.211,3.211,0,0,0,3.207-3.207V3.207A3.211,3.211,0,0,0,52.136,0Zm1.759,49.766a1.761,1.761,0,0,1-1.759,1.759H16.957A1.761,1.761,0,0,1,15.2,49.766V3.207a1.761,1.761,0,0,1,1.759-1.758H52.136a1.761,1.761,0,0,1,1.759,1.759Z"/><path class="a" d="M56.342,10H24.474a.724.724,0,0,0-.724.724v9.105a.724.724,0,0,0,.724.724H56.342a.724.724,0,0,0,.724-.724V10.724A.724.724,0,0,0,56.342,10Zm-.724,9.105H25.2V11.449H55.618Z" transform="translate(-5.861 -5.861)"/><path class="a" d="M61.338,97.523H53.474a.724.724,0,0,0-.724.724v7.025a.724.724,0,0,0,.724.726h7.863a.724.724,0,0,0,.724-.724V98.247a.724.724,0,0,0-.724-.724Zm-.725,7.026H54.2V98.972h6.415Z" transform="translate(-22.859 -57.162)"/><path class="a" d="M32.35,97.523H24.474a.724.724,0,0,0-.724.724v7.025a.724.724,0,0,0,.724.726H32.35a.724.724,0,0,0,.724-.724V98.247a.724.724,0,0,0-.724-.724Zm-.724,7.026H25.2V98.972h6.427Z" transform="translate(-5.861 -57.162)"/><path class="a" d="M61.338,69.766H53.474a.724.724,0,0,0-.724.724v7.024a.724.724,0,0,0,.724.724h7.863a.724.724,0,0,0,.724-.724V70.49a.724.724,0,0,0-.724-.724Zm-.724,7.024H54.2V71.215h6.415Z" transform="translate(-22.859 -40.892)"/><path class="a" d="M32.35,69.766H24.474a.724.724,0,0,0-.724.724v7.024a.724.724,0,0,0,.724.724H32.35a.724.724,0,0,0,.724-.724V70.49a.724.724,0,0,0-.724-.724Zm-.724,7.024H25.2V71.215h6.427Z" transform="translate(-5.861 -40.892)"/><path class="a" d="M90.321,69.766H82.445a.724.724,0,0,0-.724.724V89a.724.724,0,0,0,.724.724h7.875A.724.724,0,0,0,91.045,89V70.49a.724.724,0,0,0-.724-.724ZM89.6,88.278H83.17V71.215H89.6Z" transform="translate(-39.84 -40.892)"/><path class="a" d="M61.338,42.008H53.474a.724.724,0,0,0-.724.724v7.024a.724.724,0,0,0,.724.724h7.863a.724.724,0,0,0,.724-.724V42.732a.724.724,0,0,0-.724-.724Zm-.725,7.024H54.2V43.457h6.415Z" transform="translate(-22.859 -24.622)"/><path class="a" d="M32.35,42.008H24.474a.724.724,0,0,0-.724.724v7.024a.724.724,0,0,0,.724.724H32.35a.724.724,0,0,0,.724-.724V42.732a.724.724,0,0,0-.724-.724Zm-.724,7.024H25.2V43.457h6.427Z" transform="translate(-5.861 -24.622)"/><path class="a" d="M90.321,42.008H82.445a.724.724,0,0,0-.724.724v7.024a.724.724,0,0,0,.724.724h7.875a.724.724,0,0,0,.724-.724V42.732a.724.724,0,0,0-.724-.724ZM89.6,49.032H83.17V43.457H89.6Z" transform="translate(-39.84 -24.622)"/></g></svg>