<svg xmlns="http://www.w3.org/2000/svg" width="51.377" height="52.662" viewBox="0 0 51.377 52.662"><defs><style>.a{fill:#f89767;}</style></defs><path class="a" d="M49.66,0H2.708A2.206,2.206,0,0,0,.743,1.2,2.236,2.236,0,0,0,.917,3.525l17.2,24.231.018.025A4.915,4.915,0,0,1,19.1,30.7V50.452a2.2,2.2,0,0,0,2.2,2.21,2.262,2.262,0,0,0,.866-.173L31.829,48.8a2.093,2.093,0,0,0,1.441-2.066V30.7a4.915,4.915,0,0,1,.964-2.916l.018-.025,17.2-24.232A2.234,2.234,0,0,0,51.626,1.2,2.206,2.206,0,0,0,49.66,0ZM32.079,26.2A7.61,7.61,0,0,0,30.6,30.7V46.413l-8.822,3.364V30.7a7.607,7.607,0,0,0-1.484-4.5L3.59,2.673H48.778Zm0,0" transform="translate(-0.496 0)"/></svg>