<svg xmlns="http://www.w3.org/2000/svg" width="52.76" height="52.836" viewBox="0 0 52.76 52.836"><defs><style>.a{fill:#fc9fda;}</style></defs><g transform="translate(-0.344 0)"><g transform="translate(0.344 0)"><path class="a" d="M42.063,57.08a5.2,5.2,0,0,0-3.769-1.728,5.374,5.374,0,0,0-3.814,1.717l-3.524,3.513c-.29-.156-.58-.3-.859-.446-.4-.2-.781-.39-1.1-.591a38.3,38.3,0,0,1-9.178-8.364,22.6,22.6,0,0,1-3.011-4.751c.914-.836,1.762-1.706,2.587-2.543.312-.312.624-.636.937-.948a5.116,5.116,0,0,0,0-7.717l-3.044-3.044c-.346-.346-.7-.7-1.037-1.059-.669-.691-1.372-1.405-2.1-2.074a5.279,5.279,0,0,0-3.736-1.639,5.462,5.462,0,0,0-3.791,1.639l-.022.022L2.81,32.893A8.158,8.158,0,0,0,.39,38.078a19.549,19.549,0,0,0,1.427,8.274,48.015,48.015,0,0,0,8.531,14.229A52.478,52.478,0,0,0,27.823,74.264a27.226,27.226,0,0,0,9.813,2.9c.234.011.48.022.7.022a8.4,8.4,0,0,0,6.434-2.766c.011-.022.033-.033.045-.056a25.352,25.352,0,0,1,1.952-2.018c.48-.457.97-.937,1.45-1.439A5.563,5.563,0,0,0,49.9,67.049a5.359,5.359,0,0,0-1.717-3.825Zm3.992,11.742c-.011,0-.011.011,0,0-.435.468-.881.892-1.36,1.36a29.322,29.322,0,0,0-2.152,2.23,5.376,5.376,0,0,1-4.193,1.773c-.167,0-.346,0-.513-.011a24.187,24.187,0,0,1-8.7-2.609,49.536,49.536,0,0,1-16.46-12.891A45.273,45.273,0,0,1,4.65,45.3,15.922,15.922,0,0,1,3.4,38.323,5.119,5.119,0,0,1,4.94,35.011l3.8-3.8a2.535,2.535,0,0,1,1.7-.792,2.385,2.385,0,0,1,1.628.781l.033.033c.68.636,1.327,1.294,2.007,2,.346.357.7.714,1.059,1.082l3.044,3.044a2.128,2.128,0,0,1,0,3.457c-.323.323-.636.647-.959.959-.937.959-1.829,1.851-2.8,2.721-.022.022-.045.033-.056.056a2.275,2.275,0,0,0-.58,2.531l.033.1a24.441,24.441,0,0,0,3.6,5.877l.011.011a40.93,40.93,0,0,0,9.9,9.01,15.226,15.226,0,0,0,1.372.747c.4.2.781.39,1.1.591.045.022.089.056.134.078a2.417,2.417,0,0,0,1.1.279,2.384,2.384,0,0,0,1.7-.769l3.814-3.814a2.523,2.523,0,0,1,1.684-.836,2.271,2.271,0,0,1,1.606.814l.022.022,6.144,6.144A2.2,2.2,0,0,1,46.056,68.823Z" transform="translate(-0.344 -24.35)"/><path class="a" d="M246.183,88.912A14.352,14.352,0,0,1,257.87,100.6a1.5,1.5,0,0,0,1.483,1.249,1.99,1.99,0,0,0,.257-.022,1.507,1.507,0,0,0,1.238-1.74,17.354,17.354,0,0,0-14.14-14.14,1.513,1.513,0,0,0-1.74,1.227A1.489,1.489,0,0,0,246.183,88.912Z" transform="translate(-217.667 -76.343)"/><path class="a" d="M273.808,23.307A28.575,28.575,0,0,0,250.524.023a1.5,1.5,0,1,0-.491,2.966A25.523,25.523,0,0,1,270.842,23.8a1.5,1.5,0,0,0,1.483,1.249,1.991,1.991,0,0,0,.256-.022A1.477,1.477,0,0,0,273.808,23.307Z" transform="translate(-221.072 0)"/></g></g></svg>