<svg xmlns="http://www.w3.org/2000/svg" width="58.084" height="58.084" viewBox="0 0 58.084 58.084"><defs><style>.a{fill:#4980ff;}</style></defs><path class="a" d="M78.791,77.237a.949.949,0,0,1,.343-1.056l7.372-5.409a3.314,3.314,0,0,0-1.945-5.986l-9.143-.042a.949.949,0,0,1-.9-.652l-2.866-8.683a3.267,3.267,0,0,0-3.147-2.276h0a3.267,3.267,0,0,0-3.147,2.275l-1.292,3.912a1.182,1.182,0,0,0,2.245.741L67.6,56.15a.95.95,0,0,1,1.8,0l2.866,8.683a3.311,3.311,0,0,0,3.132,2.275l9.143.042a.95.95,0,0,1,.558,1.716l-7.372,5.409a3.311,3.311,0,0,0-1.2,3.682l2.786,8.712a.95.95,0,0,1-1.46,1.061l-7.422-5.342a3.311,3.311,0,0,0-3.872,0l-7.424,5.342a.95.95,0,0,1-1.46-1.06l2.785-8.713a3.311,3.311,0,0,0-1.2-3.682L51.9,68.867a.95.95,0,0,1,.558-1.716l9.144-.042a1.182,1.182,0,0,0-.006-2.364H61.6l-9.144.042a3.314,3.314,0,0,0-1.945,5.987l7.372,5.409a.949.949,0,0,1,.343,1.056l-2.785,8.713a3.267,3.267,0,0,0,1.209,3.691,3.268,3.268,0,0,0,3.884.009l7.424-5.342a.949.949,0,0,1,1.11,0l7.422,5.342a3.314,3.314,0,0,0,5.093-3.7Z" transform="translate(-39.464 -42.666)"/><path class="a" d="M29.042,0a29.042,29.042,0,0,0,0,58.084,1.182,1.182,0,0,0,0-2.364,26.669,26.669,0,1,1,14.336-4.175,1.182,1.182,0,0,0,1.272,1.993A29.045,29.045,0,0,0,29.042,0Z"/></svg>