<svg xmlns="http://www.w3.org/2000/svg" width="54" height="54" viewBox="0 0 54 54"><defs><style>.a{fill:#fdd05f;}</style></defs><path class="a" d="M48.375,0H34.1a10.059,10.059,0,0,0-7.16,2.965L1.919,27.99a6.556,6.556,0,0,0,0,9.27L16.74,52.081a6.556,6.556,0,0,0,9.27,0L51.034,27.056A10.059,10.059,0,0,0,54,19.9V5.625A5.633,5.633,0,0,0,48.375,0ZM51.75,19.9a7.822,7.822,0,0,1-2.3,5.567L24.419,50.49a4.412,4.412,0,0,1-6.086,0L3.51,35.667a4.3,4.3,0,0,1,0-6.086L28.534,4.556A7.828,7.828,0,0,1,34.1,2.25H48.375A3.379,3.379,0,0,1,51.75,5.625V19.9Z"/><g transform="translate(36 6.75)"><path class="a" d="M346.959,64a5.625,5.625,0,1,0,5.625,5.625A5.633,5.633,0,0,0,346.959,64Zm0,9a3.375,3.375,0,1,1,3.375-3.375A3.379,3.379,0,0,1,346.959,73Z" transform="translate(-341.334 -64)"/></g></svg>