<svg xmlns="http://www.w3.org/2000/svg" width="50.59" height="50.6" viewBox="0 0 50.59 50.6"><defs><style>.a{fill:#43d88b;}</style></defs><g transform="translate(-11 -10.8)"><path class="a" d="M53.961,46.329a7.717,7.717,0,0,0-4.253,1.259l-3.85-3.809a11.986,11.986,0,0,0-.145-15.267l3.964-3.922a7.717,7.717,0,0,0,4.273,1.28,7.536,7.536,0,1,0-7.618-7.535,7.418,7.418,0,0,0,1.724,4.8l-3.892,3.85A11.977,11.977,0,0,0,27.237,43.759L23.18,47.816a7.707,7.707,0,0,0-4.562-1.486,7.536,7.536,0,1,0,7.618,7.535,7.471,7.471,0,0,0-1.507-4.531l4.046-4.005a11.968,11.968,0,0,0,15.587.01l3.737,3.7A7.542,7.542,0,0,0,53.972,61.4a7.536,7.536,0,1,0-.01-15.071Zm0-33.351a5.421,5.421,0,0,1,5.44,5.378,5.44,5.44,0,1,1-5.44-5.378ZM18.618,59.243a5.378,5.378,0,1,1,0-10.756,5.421,5.421,0,0,1,5.44,5.378A5.356,5.356,0,0,1,18.618,59.243Zm8.134-23a9.817,9.817,0,1,1,9.817,9.817,9.819,9.819,0,0,1-9.817-9.817Zm27.21,23a5.378,5.378,0,1,1,0-10.756,5.421,5.421,0,0,1,5.44,5.378A5.356,5.356,0,0,1,53.961,59.243Z"/></g></svg>