<svg xmlns="http://www.w3.org/2000/svg" width="211.573" height="261.542" viewBox="0 0 211.573 261.542"><defs><style>.a{fill:#43d88b;stroke:#d8f7e7;}</style></defs><g transform="translate(-48.6 0.5)"><g transform="translate(49.1 0)"><path class="a" d="M255.865,205.114a3.808,3.808,0,0,0,3.808-3.808V10.57A10.583,10.583,0,0,0,249.1,0H73.729A10.583,10.583,0,0,0,63.158,10.57V25.1h-2.1a11.958,11.958,0,1,0,0,23.915h2.1V71.9h-2.1a11.958,11.958,0,1,0,0,23.915h2.1v22.88h-2.1a11.958,11.958,0,1,0,0,23.915h2.1V165.49h-2.1a11.958,11.958,0,1,0,0,23.915h2.1v22.881h-2.1a11.958,11.958,0,1,0,0,23.915h2.1v13.771a10.583,10.583,0,0,0,10.571,10.57H249.1a10.583,10.583,0,0,0,10.571-10.57V218.541a3.808,3.808,0,0,0-7.616,0v31.431a2.958,2.958,0,0,1-2.956,2.955h-8.883V132.148l11.839-9.1v78.255a3.808,3.808,0,0,0,3.808,3.808ZM61.057,41.4a4.342,4.342,0,0,1,0-8.684H73.676a4.342,4.342,0,0,1,0,8.684Zm0,46.8a4.342,4.342,0,1,1,0-8.683H73.676a4.342,4.342,0,0,1,0,8.684H61.057Zm0,46.8a4.342,4.342,0,0,1,0-8.684H73.676a4.342,4.342,0,0,1,0,8.684Zm0,46.8a4.342,4.342,0,1,1,0-8.683H73.676a4.342,4.342,0,1,1,0,8.683Zm0,46.8a4.342,4.342,0,0,1,0-8.684H73.676a4.342,4.342,0,0,1,0,8.684Zm38.768,24.341h-26.1a2.958,2.958,0,0,1-2.956-2.955V236.2h2.9a11.958,11.958,0,1,0,0-23.915h-2.9v-22.88h2.9a11.958,11.958,0,1,0,0-23.915h-2.9V142.61h2.9a11.958,11.958,0,1,0,0-23.915h-2.9V95.815h2.9a11.958,11.958,0,1,0,0-23.915h-2.9V49.019h2.9a11.958,11.958,0,1,0,0-23.915h-2.9V10.571a2.958,2.958,0,0,1,2.956-2.955h26.1ZM234.09,75.411a4.209,4.209,0,0,0-1.488,3.02v174.5H107.44V7.616H249.1a2.958,2.958,0,0,1,2.956,2.955V61.606Zm6.128,47.133V80.306l6.256-4.807,5.583-4.289v42.238Z" transform="translate(-49.1 0)"/><path class="a" d="M242.624,107.091a45.456,45.456,0,0,0-17.065,3.294,3.808,3.808,0,1,0,2.846,7.064,38.067,38.067,0,0,1,40.731,62.636c-.032-.124-.058-.254-.091-.376a27.179,27.179,0,0,0-10.414-15.318,21.407,21.407,0,1,0-32.01,0,27.184,27.184,0,0,0-10.42,15.319c-.033.122-.06.246-.092.368a38.034,38.034,0,0,1-1.033-53.584,3.807,3.807,0,1,0-5.508-5.258,45.7,45.7,0,1,0,33.056-14.148Zm0,29.316A13.791,13.791,0,1,1,228.832,150.2,13.807,13.807,0,0,1,242.624,136.407Zm-19.852,48.862c.212-1.224.475-2.426.785-3.592a18.934,18.934,0,0,1,9.571-12.3,21.345,21.345,0,0,0,18.987,0,18.937,18.937,0,0,1,9.573,12.3c.307,1.14.57,2.34.788,3.586a38,38,0,0,1-39.7,0Z" transform="translate(-121.703 -52.595)"/></g></g></svg>