<svg xmlns="http://www.w3.org/2000/svg" width="298.034" height="301" viewBox="0 0 298.034 301"><defs><style>.a{fill:#fdd05f;stroke:#fdf2d5;}</style></defs><g transform="translate(-2.03 0.5)"><g transform="translate(2.53 0)"><path class="a" d="M213.537,116.112V56.923a4.394,4.394,0,0,0-4.395-4.395H90.764a4.394,4.394,0,0,0-4.395,4.395v59.19a4.394,4.394,0,0,0,4.395,4.395H209.142A4.394,4.394,0,0,0,213.537,116.112Zm-8.789-4.395H95.158v-50.4H204.747v50.4Z" transform="translate(-37.245 -21.75)"/><path class="a" d="M126.277,331.333H90.764a4.395,4.395,0,0,0,0,8.789h35.513a4.395,4.395,0,0,0,0-8.789Z" transform="translate(-37.245 -137.193)"/><path class="a" d="M126.277,363.658H90.764a4.395,4.395,0,0,0,0,8.789h35.513a4.395,4.395,0,0,0,0-8.789Z" transform="translate(-37.245 -150.577)"/><path class="a" d="M233.026,88.781a66.251,66.251,0,0,0-21.65,3.619V43.389a4.395,4.395,0,0,0-8.789,0V96.162a66.549,66.549,0,0,0-26.893,92.96l-8.987,26.965a4.394,4.394,0,0,0,5.559,5.558l26.965-8.987c1.1.65,2.223,1.262,3.357,1.845v19.882H132a4.395,4.395,0,0,0,0,8.789h70.582V253.33H35.333a13.865,13.865,0,1,0,0,27.729H202.587v10.151H35.331a24.018,24.018,0,0,1,0-48.035H111.5a4.395,4.395,0,1,0,0-8.789H35.331a32.707,32.707,0,0,0-24.012,10.489V32.807A24.042,24.042,0,0,1,35.331,8.789H202.587V22.881a4.395,4.395,0,0,0,8.789,0V4.394A4.394,4.394,0,0,0,206.981,0H35.331A32.841,32.841,0,0,0,2.53,32.807V267.193A32.841,32.841,0,0,0,35.331,300h171.65a4.394,4.394,0,0,0,4.395-4.395V218.262a66.579,66.579,0,0,0,68.328-15.52,4.394,4.394,0,1,0-6.169-6.26,57.754,57.754,0,0,1-71.4,7.652,4.392,4.392,0,0,0-3.744-.458l-20.568,6.854,6.854-20.568a4.394,4.394,0,0,0-.458-3.744,57.749,57.749,0,1,1,100.494-5.108,4.394,4.394,0,1,0,7.86,3.932,65.818,65.818,0,0,0,6.992-29.716,66.616,66.616,0,0,0-66.538-66.544ZM35.333,272.27a5.076,5.076,0,1,1,0-10.151H202.587V272.27Z" transform="translate(-2.53 0)"/><path class="a" d="M386.109,183.85a13.865,13.865,0,1,0,13.865,13.864A13.88,13.88,0,0,0,386.109,183.85Zm0,18.94a5.076,5.076,0,1,1,5.076-5.076A5.082,5.082,0,0,1,386.109,202.79Z" transform="translate(-155.615 -76.125)"/><path class="a" d="M386.109,248.5a13.88,13.88,0,0,0-13.864,13.864v29.6a13.865,13.865,0,0,0,27.729,0v-29.6A13.88,13.88,0,0,0,386.109,248.5Zm5.077,43.46a5.076,5.076,0,0,1-10.151,0v-29.6a5.076,5.076,0,0,1,10.151,0Z" transform="translate(-155.615 -102.895)"/></g></g></svg>