<svg xmlns="http://www.w3.org/2000/svg" width="48.5" height="48.594" viewBox="0 0 48.5 48.594"><defs><style>.a{fill:#f89767;stroke:#fddcd5;stroke-width:0.5px;}</style></defs><g transform="translate(-5.75 -5.656)"><path class="a" d="M27,51A24,24,0,1,1,51,27,24.026,24.026,0,0,1,27,51ZM27,5.667A21.333,21.333,0,1,0,48.333,27,21.358,21.358,0,0,0,27,5.667Z" transform="translate(3 3)"/><path class="a" d="M18.642,51a1.344,1.344,0,0,1-.947-.392,33.625,33.625,0,0,1,0-47.213,1.335,1.335,0,0,1,1.9,1.88,30.94,30.94,0,0,0,0,43.453A1.332,1.332,0,0,1,18.642,51Z" transform="translate(11.358 3.002)"/><path class="a" d="M12.834,51a1.335,1.335,0,0,1-.949-2.275,30.94,30.94,0,0,0,0-43.453,1.335,1.335,0,0,1,1.9-1.88,33.625,33.625,0,0,1,0,47.213,1.335,1.335,0,0,1-.947.395Z" transform="translate(17.166 3)"/><path class="a" d="M48.063,11.667H4.7A1.333,1.333,0,0,1,4.7,9h43.36a1.333,1.333,0,1,1,0,2.667Z" transform="translate(3.617 13)"/><path class="a" d="M48.063,16.667H4.7A1.333,1.333,0,1,1,4.7,14h43.36a1.333,1.333,0,1,1,0,2.667Z" transform="translate(3.617 21.333)"/></g></svg>