<svg xmlns="http://www.w3.org/2000/svg" width="42.083" height="24.598" viewBox="0 0 42.083 24.598"><defs><style>.a{fill:#e570ba;}.b{fill:#fc9fda;}</style></defs><path class="a" d="M303.928,24.6h-3.945a1.315,1.315,0,1,1,0-2.63h3.945a9.669,9.669,0,0,0,0-19.337h-3.945a1.315,1.315,0,0,1,0-2.63h3.945a12.3,12.3,0,0,1,0,24.6Zm0,0" transform="translate(-274.119)"/><path class="a" d="M16.219,24.6H12.274a12.3,12.3,0,0,1,0-24.6h3.945a1.315,1.315,0,0,1,0,2.63H12.274a9.669,9.669,0,0,0,0,19.337h3.945a1.315,1.315,0,0,1,0,2.63Zm0,0" transform="translate(0 0)"/><path class="b" d="M183.38,136.263h-11.4a1.315,1.315,0,1,1,0-2.63h11.4a1.315,1.315,0,1,1,0,2.63Zm0,0" transform="translate(-156.64 -122.649)"/></svg>