<svg xmlns="http://www.w3.org/2000/svg" width="45.8" height="45.8" viewBox="0 0 45.8 45.8"><defs><style>.a{fill:#43d88b;stroke:#d8f7e7;stroke-width:2px;}</style></defs><path class="a" d="M21.9,0A21.9,21.9,0,1,0,37.457,37.3a1.8,1.8,0,0,0-.087-2.525l-3.456-3.405a3.157,3.157,0,0,0,.228-3.443,9.356,9.356,0,0,0-3.7-3.83,3.557,3.557,0,0,0-1.8-.536,2.98,2.98,0,0,0-.683.081,6.126,6.126,0,0,0-2.192,1.067,1.359,1.359,0,0,1-.835.256,1.964,1.964,0,0,1-1.117-.354,26.694,26.694,0,0,1-5.521-5.522,1.776,1.776,0,0,1-.1-1.954,6.056,6.056,0,0,0,1.067-2.191,3.269,3.269,0,0,0-.453-2.48,9.354,9.354,0,0,0-3.831-3.7,3.422,3.422,0,0,0-1.588-.411,3.273,3.273,0,0,0-2.4,1.116,25.359,25.359,0,0,0-1.827,2.238,3.591,3.591,0,0,0-.5,2.494v.017a10.362,10.362,0,0,0,1.16,3.672,27.241,27.241,0,0,0,5.2,7.152c.473.483,2.358,2.369,2.842,2.842a27.275,27.275,0,0,0,7.152,5.2,10.393,10.393,0,0,0,3.672,1.16h.017c.209.01.432.021.65.021a3.021,3.021,0,0,0,1.784-.482l2.274,2.241A18.225,18.225,0,1,1,40.135,21.9a1.833,1.833,0,0,0,3.665,0A21.926,21.926,0,0,0,21.9,0Z" transform="translate(1 1)"/></svg>