<svg xmlns="http://www.w3.org/2000/svg" width="45.302" height="35.006" viewBox="0 0 45.302 35.006"><defs><style>.a{fill:#fdc538;}.b{fill:#feda8a;}</style></defs><g transform="translate(0 -53.333)"><g transform="translate(5.324 56.515)"><path class="a" d="M92.187,95.959,84.444,87.45a3.942,3.942,0,0,0-5.574.012,3.854,3.854,0,0,0-1,1.7,3.945,3.945,0,0,0-6.18,2.057,3.946,3.946,0,0,0-5.179.358,3.9,3.9,0,0,0-.988,1.662l-3.649-3.649A3.942,3.942,0,0,0,56.3,95.168l14.019,14.019-8.315,1.305a4.613,4.613,0,0,0-3.941,4.545,3.092,3.092,0,0,0,3.089,3.089H80.571a11.25,11.25,0,0,0,8.008-3.317l3.239-3.239a11.311,11.311,0,0,0,.369-15.611Zm-1.824,14.155-3.239,3.239a9.205,9.205,0,0,1-6.552,2.714H61.155a1.03,1.03,0,0,1-1.03-1.03,2.548,2.548,0,0,1,2.189-2.508l10.327-1.623a1.029,1.029,0,0,0,.568-1.744L57.76,93.712a1.883,1.883,0,0,1,2.663-2.663l10.3,10.3a1.029,1.029,0,1,0,1.454-1.458l-4.207-4.207a1.883,1.883,0,0,1,2.663-2.663l4.209,4.209A1.029,1.029,0,1,0,76.3,95.775l-2.148-2.148a1.883,1.883,0,0,1,2.663-2.663l2.158,2.158s0,0,0,0l0,0,0,0,0,0h0a0,0,0,0,1,0,0,1.03,1.03,0,0,0,1.435-1.476l-.089-.089a1.883,1.883,0,0,1,2.628-2.7l7.71,8.474a9.255,9.255,0,0,1-.3,12.769Z" transform="translate(-55.153 -86.302)"/></g><g transform="translate(0 53.333)"><g transform="translate(0 0)"><path class="b" d="M17.7,58.8A9.257,9.257,0,1,0,5.463,71.036a1.03,1.03,0,1,0,.848-1.878,7.2,7.2,0,1,1,9.513-9.513A1.029,1.029,0,1,0,17.7,58.8Z" transform="translate(0 -53.333)"/></g></g></g></svg>