<svg xmlns="http://www.w3.org/2000/svg" width="35.987" height="45.608" viewBox="0 0 35.987 45.608"><defs><style>.a{fill:#f89767;}</style></defs><g transform="translate(0)"><path class="a" d="M87.261,105.71a.89.89,0,1,0,.63-.261A.9.9,0,0,0,87.261,105.71Zm0,0" transform="translate(-79.25 -96.056)"/><path class="a" d="M32.841,105.452H12.2a.891.891,0,0,0,0,1.782H32.841a1.366,1.366,0,0,1,1.364,1.364V126.88h-5.92a.891.891,0,0,0,0,1.782h5.92v.417a1.366,1.366,0,0,1-1.364,1.364H6.826a.891.891,0,0,0-.574.209l-4.471,3.765V108.6a1.366,1.366,0,0,1,1.364-1.364H5.078a.891.891,0,1,0,0-1.782H3.146A3.149,3.149,0,0,0,0,108.6v27.734a.891.891,0,0,0,1.465.681l5.686-4.789h25.69a3.15,3.15,0,0,0,3.146-3.146V108.6a3.149,3.149,0,0,0-3.146-3.146Zm0,0" transform="translate(0 -96.059)"/><path class="a" d="M192.891,6.233a.891.891,0,0,0,.891-.891V.891a.891.891,0,1,0-1.782,0V5.342A.891.891,0,0,0,192.891,6.233Zm0,0" transform="translate(-174.897)"/><path class="a" d="M268.262,23.962a.887.887,0,0,0,.63-.261l3.114-3.114a.891.891,0,0,0-1.26-1.26l-3.114,3.114a.891.891,0,0,0,.63,1.521Zm0,0" transform="translate(-243.554 -17.368)"/><path class="a" d="M85.044,23.635a.891.891,0,1,0,1.26-1.26l-3.114-3.114a.891.891,0,0,0-1.26,1.26Zm0,0" transform="translate(-74.394 -17.308)"/><path class="a" d="M192.891,442.031a.891.891,0,0,0-.891.891v4.451a.891.891,0,1,0,1.782,0v-4.451A.891.891,0,0,0,192.891,442.031Zm0,0" transform="translate(-174.897 -402.656)"/><path class="a" d="M268.891,438.233a.891.891,0,1,0-1.26,1.26l3.114,3.114a.891.891,0,0,0,1.26-1.26Zm0,0" transform="translate(-243.554 -398.959)"/><path class="a" d="M85.044,438.3l-3.114,3.114a.891.891,0,1,0,1.26,1.26L86.3,439.56a.891.891,0,1,0-1.26-1.26Zm0,0" transform="translate(-74.394 -399.02)"/><path class="a" d="M221.756,206.362a4.238,4.238,0,0,0-4.233-4.233H215.59a.891.891,0,0,0-.891.891v7.839a.891.891,0,0,0,.891.891h1.933a4.238,4.238,0,0,0,4.233-4.234Zm-1.782,1.153a2.455,2.455,0,0,1-2.452,2.452h-1.042V203.91h1.042a2.454,2.454,0,0,1,2.452,2.452Zm0,0" transform="translate(-195.574 -184.124)"/><path class="a" d="M110.881,208.335l-.753,2.239a.891.891,0,1,0,1.688.568l.556-1.652h2.475l.556,1.652a.891.891,0,1,0,1.688-.568l-2.638-7.839a.891.891,0,0,0-1.688,0l-1.883,5.6Zm2.728-2.522.638,1.9h-1.276Zm0,0" transform="translate(-100.275 -184.124)"/><path class="a" d="M268.3,346.261a.891.891,0,1,0,.63-.261A.9.9,0,0,0,268.3,346.261Zm0,0" transform="translate(-244.163 -315.18)"/></g></svg>