<svg xmlns="http://www.w3.org/2000/svg" width="57.664" height="61" viewBox="0 0 57.664 61"><defs><style>.a{fill:#a4a7f2;}.b{fill:#817efc;}</style></defs><g transform="translate(-0.001 0)"><path class="a" d="M204.494,109.584a1.084,1.084,0,0,1-.33.794,1.139,1.139,0,0,1-1.948-.809V101.5a1.139,1.139,0,0,1,.344-.808,1.087,1.087,0,0,1,.809-.359,1.063,1.063,0,0,1,.795.344,1.149,1.149,0,0,1,.33.823Zm0,0" transform="translate(-178.122 -88.375)"/><path class="a" d="M239.209,107.18v2.293a1.134,1.134,0,0,1-1.941.8,1.127,1.127,0,0,1-.337-.83v-7.9a1.156,1.156,0,0,1,.344-.851,1.14,1.14,0,0,1,.837-.344h2.672a3.588,3.588,0,0,1,2.588.956,3.634,3.634,0,0,1,.056,4.944,3.4,3.4,0,0,1-2.5.935Zm0-4.8v2.8h1.448a1.309,1.309,0,0,0,.956-.408,1.326,1.326,0,0,0,.408-.971,1.422,1.422,0,0,0-.387-1.006,1.264,1.264,0,0,0-.964-.415Zm0,0" transform="translate(-208.701 -88.389)"/><path class="b" d="M52.091,42.76a1.192,1.192,0,1,0-1.922,1.411,26.26,26.26,0,0,1,3.889,7.647A26.593,26.593,0,0,0,43.087,45.54c-.123-.384-.249-.766-.383-1.141a25.861,25.861,0,0,0-5.783-9.726l.035-.044a26.343,26.343,0,0,1,7.179,3.6,1.192,1.192,0,1,0,1.38-1.944,28.726,28.726,0,0,0-6.987-3.642c3.922-5.106,7.185-10.664,7.185-15.763a16.881,16.881,0,1,0-33.762,0c0,3.627,1.659,7.823,5.072,12.826.675.99,1.392,1.97,2.13,2.933A29.082,29.082,0,0,0,5.9,42.329,28.575,28.575,0,0,0,0,59.807,1.192,1.192,0,0,0,1.193,61h55.28a1.192,1.192,0,0,0,1.192-1.192A28.605,28.605,0,0,0,52.091,42.76Zm-11.8,2a46.516,46.516,0,0,0-5.851-1.016A5.71,5.71,0,0,0,32.256,40.1c1.013-1.14,2.072-2.342,3.133-3.59a23.32,23.32,0,0,1,4.9,8.247ZM14.336,16.882a14.5,14.5,0,1,1,28.994,0c0,7.2-8.236,16.45-13.685,22.568l-.811.912-.783-.88c-5.461-6.136-13.715-15.409-13.715-22.6ZM25.411,40.1a5.708,5.708,0,0,0-2.185,3.641,46.4,46.4,0,0,0-5.856,1.016,23.315,23.315,0,0,1,4.91-8.253c1.071,1.264,2.131,2.47,3.131,3.6ZM12.477,58.616H2.485c.7-4.168,5-7.923,11.307-10.27a48.371,48.371,0,0,0-1.315,10.27ZM3.648,51.777A26.585,26.585,0,0,1,20.722,34.628l.03.037A25.84,25.84,0,0,0,14.962,44.4c-.134.376-.261.759-.384,1.144a26.652,26.652,0,0,0-10.93,6.236ZM27.64,58.616H14.86a45.3,45.3,0,0,1,1.631-11.152,42.787,42.787,0,0,1,6.862-1.337,5.666,5.666,0,0,0,4.287,4.054v8.435ZM29.169,47.9A3.293,3.293,0,0,1,27,41.891q.485.546.935,1.058a1.192,1.192,0,0,0,1.792,0c.3-.341.613-.7.936-1.059A3.293,3.293,0,0,1,29.176,47.9h-.007c-.048,0,0,0,0,0-.174.018,0,0,0,0Zm.856,10.712V50.18a5.664,5.664,0,0,0,4.229-3.859c.005-.016.009-.032.014-.048.015-.049.03-.1.043-.148a42.766,42.766,0,0,1,6.862,1.337,45.292,45.292,0,0,1,1.632,11.153Zm15.164,0a48.379,48.379,0,0,0-1.315-10.27c6.312,2.347,10.612,6.1,11.307,10.27Zm0,0" transform="translate(0)"/><path class="a" d="M155.314,68.383a11.727,11.727,0,1,1,11.728-11.725A11.738,11.738,0,0,1,155.314,68.383Zm0-21.07a9.343,9.343,0,1,0,9.344,9.345A9.353,9.353,0,0,0,155.314,47.313Zm0,0" transform="translate(-126.482 -39.577)"/><path class="b" d="M397.113,330.213a1.19,1.19,0,0,1-.932-.448l-.013-.017a1.192,1.192,0,1,1,1.862-1.49l.014.017a1.192,1.192,0,0,1-.93,1.937Zm0,0" transform="translate(-348.737 -288.756)"/></g></svg>