<svg xmlns="http://www.w3.org/2000/svg" width="264.419" height="113" viewBox="0 0 264.419 113"><defs><style>.a,.b{fill:#fff;}.b{font-size:85px;font-family:SegoeUI, Segoe UI;}</style></defs><g transform="translate(-434.128 -747.474)"><g transform="translate(434.128 754.915)"><g transform="translate(0 0)"><path class="a" d="M500.964,847.33a27.648,27.648,0,0,0-18.051,23.852l4.1,2.367a23.591,23.591,0,0,1,2.443-10.664,22.51,22.51,0,0,1,10.972-10.83,25.806,25.806,0,0,1,5.691-1.76l4.241-2.449,4.041,2.334a23.018,23.018,0,0,1,14.279,8.247l7.3,4.214a27.412,27.412,0,0,0-1.481-3.127C527.99,847.982,513.261,842.63,500.964,847.33Z" transform="translate(-468.003 -823.071)"/><path class="a" d="M502.559,997.018a12,12,0,0,0,1.03,1.2,2.051,2.051,0,0,0,2.537.62,2.361,2.361,0,0,0,.355-.241,2.048,2.048,0,0,0,.336-2.915c-.455-.673-.933-1.345-1.4-2-.59-.829-1.2-1.687-1.764-2.55A90.849,90.849,0,0,1,496.4,978l-5.82-3.355a65.564,65.564,0,0,0,5.5,12.059A64.041,64.041,0,0,0,502.559,997.018Z" transform="translate(-473.326 -912.654)"/><path class="a" d="M465.56,812.823a36.481,36.481,0,0,1,23.867-4.362,36.019,36.019,0,0,1,21.945,12.424l.08.1a5.37,5.37,0,0,0,.461.508c.418.391,1.69,1.581,3.048.426,1.214-1.031.624-2.3.076-3.17l-.026-.036a39.206,39.206,0,0,0-13.246-10.585,40.275,40.275,0,0,0-56,22.05,40.956,40.956,0,0,0-1.571,5.111l3.8,2.2A36.9,36.9,0,0,1,465.56,812.823Z" transform="translate(-441.116 -794.01)"/><path class="a" d="M445.94,961.245a2.148,2.148,0,0,0,1.251-.108,2.432,2.432,0,0,0,.337-.152,2.09,2.09,0,0,0,.8-2.718L448,957.224a64.951,64.951,0,0,1-2.286-8.447l-4.522-2.607a43.137,43.137,0,0,0,.98,6.286A52.466,52.466,0,0,0,445.94,961.245Z" transform="translate(-439.033 -892.884)"/><path class="a" d="M552.542,925.557a62.675,62.675,0,0,1-2.787-7.466,4.271,4.271,0,0,1,2.311-5.1A3.953,3.953,0,0,1,557.535,915c.658,1.372,1.215,2.825,1.754,4.23.491,1.281,1,2.6,1.587,3.882a51.12,51.12,0,0,0,6.955,10.8c.441.546,1.782,2.206,3.44.873a1.978,1.978,0,0,0,.805-1.354,3.2,3.2,0,0,0-.943-2.205,48.181,48.181,0,0,1-9.107-16.686,8.512,8.512,0,0,0-16.034-.917,8.454,8.454,0,0,0-.172,6.25,74.105,74.105,0,0,0,3.081,7.979l7.086,4.092A68.683,68.683,0,0,1,552.542,925.557Z" transform="translate(-511.329 -866.654)"/><path class="a" d="M599.866,1023.216q1.755-1.421,3.376-2.867a60.66,60.66,0,0,1-14.807-13.32,28.592,28.592,0,0,1-3.034,3A64.451,64.451,0,0,0,599.866,1023.216Z" transform="translate(-539.167 -935.142)"/><path class="a" d="M531.841,791.816l-14.482-8.363a45.413,45.413,0,0,0-9.663-.392q-1.96.132-3.875.416l-14.44,8.339-6.294,3.634c1.154.858,2.463-.091,3.212-.635a39.1,39.1,0,0,1,20.94-7.512c16.242-.975,29.275,5.307,38.737,18.671.522.737,1.011,1.479,1.53,2.265.232.351.465.705.7,1.062.424,1.178.938,2.343,1.434,3.47a45.325,45.325,0,0,1,1.692,4.219,17.371,17.371,0,0,0,1.673,3.677q.059-1.553.061-3.152v-7.7a45.426,45.426,0,0,0-5.452-8.886Z" transform="translate(-468.124 -779.556)"/><path class="a" d="M444.763,834.466c.2-.224.4-.456.592-.7.617-.817,1.526-2.023.284-3.2-.025-.024-.051-.044-.076-.067l-5.676,3.277a39.361,39.361,0,0,0-2.873,4.116,53.855,53.855,0,0,0-2.858,5.375v3.074s-.069,2.383.013,5.75l1.009.583a43.046,43.046,0,0,1,9.295-17.869C444.568,834.685,444.665,834.575,444.763,834.466Z" transform="translate(-434.128 -812.56)"/><path class="a" d="M647.216,947.722q1.022-1.844,1.9-3.76-.33-.189-.656-.384a35.851,35.851,0,0,1-13.108-13.452l-6.331-3.656C632.66,936.02,638.757,943.134,647.216,947.722Z" transform="translate(-569.452 -879.205)"/><path class="a" d="M532.631,878.406a2.133,2.133,0,0,0,1.256,1.216,3.245,3.245,0,0,0,2.439-.7c.19-.112.376-.223.557-.317a17.581,17.581,0,0,1,2.293-1l-4.537-2.62c-.17.108-.349.214-.541.322C533.106,875.872,531.747,876.64,532.631,878.406Z" transform="translate(-502.327 -843.457)"/><path class="a" d="M509.52,900.442l.041-.076c.168-.31.342-.631.5-.959.82-1.72.049-2.561-.741-2.963a2,2,0,0,0-2.89.971,20.314,20.314,0,0,0-3.072,12.5l4.749,2.743A16.162,16.162,0,0,1,509.52,900.442Z" transform="translate(-482.139 -858.159)"/><path class="a" d="M543.485,1020.432q1.961-1.257,3.805-2.524c-.5-.357-.994-.721-1.476-1.1a72.134,72.134,0,0,1-18.06-20.124c-.188-.317-.383-.629-.576-.941l-7.095-4.091a79.825,79.825,0,0,0,23.4,28.779Z" transform="translate(-493.813 -924.466)"/><path class="a" d="M566.064,773.07q2.18-.075,4.405.045l-2.242-1.294Z" transform="translate(-525.74 -771.821)"/><path class="a" d="M466.252,916.4a1.826,1.826,0,0,0-1.825.639l3.531,2.039C468.019,918.424,468.132,916.664,466.252,916.4Z" transform="translate(-455.167 -872.195)"/><path class="a" d="M471.549,978.478a104.371,104.371,0,0,0,7.39,11.542A137.857,137.857,0,0,0,494.4,1000.6a86.74,86.74,0,0,1-25.027-38.187l-5.213-3.006A72.546,72.546,0,0,0,468.3,971.58,52.07,52.07,0,0,0,471.549,978.478Z" transform="translate(-454.978 -902.076)"/><path class="a" d="M589.406,826.97c-.363-.094-.75-.192-1.146-.263-1.825-.328-2.458.639-2.668,1.508s-.079,2.023,1.764,2.481a35.93,35.93,0,0,1,6.985,2.313,29.8,29.8,0,0,1,15.933,18.212l6.136,3.544a25.928,25.928,0,0,1-2.11-4.741C610.3,837.976,601.923,830.219,589.406,826.97Z" transform="translate(-539.248 -809.887)"/><path class="a" d="M591.846,965.1q1.619-1.525,3.1-3.087-.461-.282-.913-.573a55.392,55.392,0,0,1-22.956-29.288c-.125-.369-.279-.726-.429-1.072a2.094,2.094,0,0,0-2.6-1.392c-.649.173-1.684.741-1.315,2.6a26.622,26.622,0,0,0,1.721,5.043c.159.379.317.759.471,1.139.48,1.183,1.067,2.327,1.585,3.336.214.417.417.814.6,1.187l0,.01.005.01a68.893,68.893,0,0,0,3.819,6.041l2.732,1.578-.827.98A57.686,57.686,0,0,0,591.846,965.1Z" transform="translate(-526.15 -881.379)"/><path class="a" d="M528.332,893.2a14.8,14.8,0,0,0-3.443,12.883,29.085,29.085,0,0,0,.736,2.852l5.792,3.345a58.031,58.031,0,0,1-2.339-6.639c-1.214-4.307.556-8.718,4.619-11.513a10.439,10.439,0,0,1,11.929.278,15.934,15.934,0,0,1,1.542,1.349c.435.428,1.692,1.661,3.027.737l-13.775-7.953A14.7,14.7,0,0,0,528.332,893.2Z" transform="translate(-496.937 -852.864)"/><path class="a" d="M612.36,934.791A47.182,47.182,0,0,0,630.366,953q1.248-1.744,2.345-3.548a42.329,42.329,0,0,1-18.623-21.016c-.317-.768-1.158-2.809-3.137-2.012-1.868.757-1.209,2.473-.773,3.612A31.549,31.549,0,0,0,612.36,934.791Z" transform="translate(-556.041 -879.05)"/><path class="a" d="M709.629,851.8v-1.169l-1.073-.619Q709.112,850.894,709.629,851.8Z" transform="translate(-624.682 -826.114)"/><path class="a" d="M500.432,825.589a2.513,2.513,0,0,0-1.906-.478,32.851,32.851,0,0,0-10.977,2.87c-.609.28-1.2.614-1.762.938-.258.147-.516.294-.776.436a32.665,32.665,0,0,0-14.039,14.433,13.856,13.856,0,0,0-1.09,2.727,1.856,1.856,0,0,0,1.151,2.333,1.963,1.963,0,0,0,1.692-.067,2.193,2.193,0,0,0,.769-.726,9.249,9.249,0,0,0,.64-1.2c.057-.123.115-.245.174-.366,4.727-9.688,12.638-15.45,23.516-17.125.35-.054.714-.09,1.066-.125l.052,0c2-.2,2.21-1.445,2.159-2.171A2.041,2.041,0,0,0,500.432,825.589Z" transform="translate(-458.897 -808.813)"/><path class="a" d="M558.667,1014.931a71.044,71.044,0,0,0,16.933,16.927q1.875-1.337,3.624-2.693a69.631,69.631,0,0,1-14.472-13.255c-.4.266-.809.525-1.246.777l-5.329-3.073a2.864,2.864,0,0,0,.481,1.3Z" transform="translate(-520.263 -939.715)"/><path class="a" d="M468.2,1008.9a3.1,3.1,0,0,0-1.528-1.8,2.056,2.056,0,0,0-1.62.042,2.565,2.565,0,0,0-.52.283,61.631,61.631,0,0,0,8.214,9.888q-1.207-1.931-2.4-4A38.571,38.571,0,0,1,468.2,1008.9Z" transform="translate(-455.239 -935.09)"/><path class="a" d="M704.183,929.651c.01-.071.022-.144.033-.214l.027.015c.028-.184.052-.37.078-.555l-2.333-1.348A22.076,22.076,0,0,0,704.183,929.651Z" transform="translate(-620.121 -879.954)"/><path class="a" d="M686.067,882.624c-.572-1.28-1.032-2.645-1.477-3.965-.217-.644-.434-1.289-.664-1.927a5.1,5.1,0,0,0-1.347-2.282,2.105,2.105,0,0,0-2.562-.342,1.894,1.894,0,0,0-.793,2.47c.9,2.371,1.836,4.782,2.663,6.909l.878,2.261.017.028a27.5,27.5,0,0,0,3.283,4.464l2.333,1.348q.308-2.18.488-4.456A18.394,18.394,0,0,1,686.067,882.624Z" transform="translate(-604.198 -842.643)"/><path class="a" d="M639.222,1005.279a39.979,39.979,0,0,0,7.034,5.141l.125.075q1.458-1.644,2.765-3.338a54.614,54.614,0,0,1-6.685-4.61c-.465-.373-1.88-1.507-3.234-.181a2.016,2.016,0,0,0-.048,2.864Z" transform="translate(-576.114 -931.47)"/><path class="a" d="M679.715,959.177a33.413,33.413,0,0,0,4.9,3.435c.4-.88.754-1.808,1.081-2.76l-6.372-3.679A2.028,2.028,0,0,0,679.715,959.177Z" transform="translate(-604.041 -899.829)"/><path class="a" d="M553.848,1062.766l-.048-.049a7.366,7.366,0,0,0-1.148-1.018,1.947,1.947,0,0,0-2.583.105,2.163,2.163,0,0,0-.294,2.912l.053.071c.151.159.311.334.481.519.406.441.865.942,1.356,1.414,2.033,1.957,4.164,3.827,6.363,5.591q1.992-1.171,3.884-2.345A78.029,78.029,0,0,1,553.848,1062.766Z" transform="translate(-514.136 -972.801)"/></g></g><text class="b" transform="translate(532.547 839.474)"><tspan x="0" y="0">SILA</tspan></text></g></svg>