<svg xmlns="http://www.w3.org/2000/svg" width="28.101" height="30.316" viewBox="0 0 28.101 30.316"><defs><style>.a{fill:#272d3b;}</style></defs><path class="a" d="M30.756,28.579H22.849a3.9,3.9,0,0,1-3.892-3.892V5.63a3.9,3.9,0,0,1,3.892-3.892h8.036a.869.869,0,0,0,0-1.737H22.849a5.636,5.636,0,0,0-5.63,5.63V24.687a5.636,5.636,0,0,0,5.63,5.63h7.907a.869.869,0,0,0,0-1.737Z" transform="translate(-17.219)"/><path class="a" d="M141.719,142.1l-5.52-5.52a.869.869,0,0,0-1.229,1.229l4.04,4.04H121.388a.869.869,0,0,0,0,1.737H139.01l-4.04,4.04a.872.872,0,0,0,.611,1.486.848.848,0,0,0,.611-.257l5.52-5.52A.868.868,0,0,0,141.719,142.1Z" transform="translate(-113.873 -127.554)"/></svg>