<svg xmlns="http://www.w3.org/2000/svg" width="23.988" height="30.316" viewBox="0 0 23.988 30.316"><defs><style>.a{fill:#272d3b;}</style></defs><path class="a" d="M76.927,24.126A4.71,4.71,0,0,1,75.5,22.177C74.263,19.567,74,15.89,74,13.265c0-.011,0-.023,0-.034a8.6,8.6,0,0,0-5.063-7.8V3.377A3.378,3.378,0,0,0,65.568,0h-.279a3.378,3.378,0,0,0-3.372,3.377V5.429a8.6,8.6,0,0,0-5.064,7.836c0,2.625-.259,6.3-1.492,8.912a4.71,4.71,0,0,1-1.431,1.949.863.863,0,0,0-.474.982.9.9,0,0,0,.891.694h6.51A4.573,4.573,0,0,0,70,25.8h6.51a.9.9,0,0,0,.891-.694A.864.864,0,0,0,76.927,24.126ZM63.693,3.377a1.6,1.6,0,0,1,1.6-1.6h.279a1.6,1.6,0,0,1,1.6,1.6V4.853a8.6,8.6,0,0,0-3.47,0V3.377Zm1.735,25.16a2.8,2.8,0,0,1-2.8-2.735h5.592A2.8,2.8,0,0,1,65.428,28.537ZM69,24.023H56.37a9.311,9.311,0,0,0,.465-.817c1.19-2.347,1.794-5.692,1.794-9.941a6.8,6.8,0,1,1,13.6,0c0,.011,0,.022,0,.033,0,4.232.607,7.565,1.794,9.905a9.319,9.319,0,0,0,.465.817Z" transform="translate(-53.434 0)"/></svg>