<svg xmlns="http://www.w3.org/2000/svg" width="27.006" height="22.048" viewBox="0 0 27.006 22.048"><path d="M27.006,13.5A13.375,13.375,0,0,1,24.28,21.63,1.055,1.055,0,0,1,22.6,20.357,11.391,11.391,0,1,0,2.11,13.5a11.282,11.282,0,0,0,2.3,6.86A1.055,1.055,0,0,1,2.726,21.63,13.5,13.5,0,0,1,13.5,0a13.493,13.493,0,0,1,13.5,13.5ZM20.188,7.144a1.055,1.055,0,0,1,0,1.492l-3.439,3.439a3.692,3.692,0,1,1-1.492-1.492L18.7,7.144a1.055,1.055,0,0,1,1.492,0Zm-5.1,6.684a1.58,1.58,0,1,0-1.58,1.58A1.582,1.582,0,0,0,15.083,13.828Zm0,0" transform="translate(0 0)"/></svg>