<svg xmlns="http://www.w3.org/2000/svg" width="22.223" height="19.851" viewBox="0 0 22.223 19.851"><path d="M18.017,35.166a5.545,5.545,0,0,0-6.9-8.657,5.548,5.548,0,0,0-6.909,8.657A7.882,7.882,0,0,0,0,42.17v2.381a.794.794,0,0,0,.794.794H21.429a.794.794,0,0,0,.794-.794V42.17A7.882,7.882,0,0,0,18.017,35.166Zm-3.73-8.075a3.963,3.963,0,0,1,1.631,7.576c-.061.028-.122.053-.184.079a3.89,3.89,0,0,1-.6.188c-.04.009-.079.013-.12.021a3.969,3.969,0,0,1-.7.071c-.106,0-.212-.008-.317-.017A.6.6,0,0,1,13.875,35a4.009,4.009,0,0,1-1.3-.383c-.015-.007-.033-.006-.048-.013-.079-.038-.159-.071-.229-.114.006-.008.01-.017.017-.025a5.567,5.567,0,0,0,.85-1.548l.025-.067a5.6,5.6,0,0,0,.21-.817c.007-.04.013-.079.019-.123a5.066,5.066,0,0,0,0-1.7c-.006-.041-.012-.079-.019-.123a5.6,5.6,0,0,0-.21-.817l-.025-.067a5.569,5.569,0,0,0-.85-1.548c-.006-.008-.01-.017-.017-.025A3.943,3.943,0,0,1,14.286,27.091ZM3.969,31.059a3.958,3.958,0,0,1,6.7-2.867c.046.044.091.089.136.135a4.081,4.081,0,0,1,.376.456c.035.049.067.1.1.152a3.9,3.9,0,0,1,.291.536c.02.045.035.091.052.136a3.88,3.88,0,0,1,.2.635c.006.024.007.048.012.072a3.736,3.736,0,0,1,0,1.494c0,.025-.006.048-.012.072a3.87,3.87,0,0,1-.2.635c-.017.045-.033.091-.052.136a3.918,3.918,0,0,1-.291.535c-.033.051-.064.1-.1.152a4.072,4.072,0,0,1-.376.456c-.044.046-.09.09-.136.135a3.961,3.961,0,0,1-1.1.74c-.064.029-.129.056-.2.079a3.992,3.992,0,0,1-.589.183c-.05.011-.1.017-.152.026a3.938,3.938,0,0,1-.653.066H7.894a3.933,3.933,0,0,1-.653-.066c-.051-.009-.1-.015-.152-.026A3.99,3.99,0,0,1,6.5,34.75l-.2-.079A3.968,3.968,0,0,1,3.969,31.059Zm10.317,12.7H1.588V42.17a6.309,6.309,0,0,1,4.221-5.981,5.538,5.538,0,0,0,4.257,0,6.377,6.377,0,0,1,.773.342c.165.085.317.182.476.279.1.064.208.127.307.2.153.109.3.227.44.348.091.079.182.159.267.238.131.124.254.255.372.389.085.1.167.2.246.3.1.133.2.27.3.41.079.119.15.243.22.367s.152.273.219.415.125.3.183.449c.05.132.1.263.144.4.056.184.094.375.133.565.024.113.055.223.072.337a6.564,6.564,0,0,1,.072.949v1.587Zm6.349,0H15.874V42.17c0-.248-.014-.494-.037-.738-.006-.071-.017-.142-.025-.213-.021-.175-.046-.349-.079-.521q-.021-.11-.045-.221-.057-.265-.133-.525c-.017-.057-.032-.115-.049-.171a7.864,7.864,0,0,0-.956-2.006l-.031-.045q-.2-.3-.437-.588l-.006-.007a7.2,7.2,0,0,0-.512-.569H13.6a5.617,5.617,0,0,0,.675.048h.044a5.612,5.612,0,0,0,.625-.04c.065-.008.129-.02.194-.03q.253-.039.5-.1c.047-.012.094-.023.142-.037a5.4,5.4,0,0,0,.635-.216,6.31,6.31,0,0,1,4.224,5.983v1.587Z" transform="translate(-0.001 -25.494)"/></svg>