<svg xmlns="http://www.w3.org/2000/svg" width="21.486" height="23.18" viewBox="0 0 21.486 23.18"><path d="M28.3,21.852H21.826a3.09,3.09,0,0,1-3.186-2.976V4.3a3.09,3.09,0,0,1,3.186-2.976H28.4a.686.686,0,0,0,.711-.664A.686.686,0,0,0,28.4,0H21.826a4.468,4.468,0,0,0-4.607,4.3V18.876a4.469,4.469,0,0,0,4.607,4.3H28.3a.666.666,0,1,0,0-1.328Z" transform="translate(-17.219)"/><path d="M137.868,141.052l-4.518-4.518a.711.711,0,0,0-1.006,1.006l3.307,3.307H121.23a.711.711,0,0,0,0,1.422h14.422l-3.307,3.307a.713.713,0,0,0,.5,1.216.694.694,0,0,0,.5-.211l4.518-4.518A.71.71,0,0,0,137.868,141.052Z" transform="translate(-116.591 -129.963)"/></svg>