<svg xmlns="http://www.w3.org/2000/svg" width="9.748" height="15.135" viewBox="0 0 9.748 15.135"><defs><style>.a{stroke:#000;stroke-width:0.2px;}</style></defs><path class="a" d="M19.023,22.681h2.046v1.28h-.682a.391.391,0,0,0-.341.427v5.121a.391.391,0,0,0,.341.427h4.774a.391.391,0,0,0,.341-.427V24.388a.391.391,0,0,0-.341-.427h-.682v-1.28h2.046a1.175,1.175,0,0,0,1.023-1.28V16.28A1.175,1.175,0,0,0,26.525,15h-7.5A1.175,1.175,0,0,0,18,16.28V21.4A1.175,1.175,0,0,0,19.023,22.681Zm5.8,6.4H20.728V24.815H24.82ZM23.8,23.961H21.751v-1.28H23.8Zm2.728-2.134H21.814a1.067,1.067,0,0,1,.96-.853v-.853A1.856,1.856,0,0,0,21.1,21.828h-2.08a.392.392,0,0,1-.341-.427V19.267h8.184V21.4A.392.392,0,0,1,26.525,21.828Zm-7.843-3.414V17.56h8.184v.853Zm.341-2.56h7.5a.392.392,0,0,1,.341.427v.427H18.682V16.28A.392.392,0,0,1,19.023,15.853Z" transform="translate(-17.9 -14.9)"/></svg>