<svg xmlns="http://www.w3.org/2000/svg" width="27.007" height="27.006" viewBox="0 0 27.007 27.006"><g transform="translate(1194.083 -1708.36)"><path d="M185.116,362a4.116,4.116,0,1,0,4.116,4.116A4.121,4.121,0,0,0,185.116,362Zm0,6.585a2.47,2.47,0,1,1,2.47-2.469A2.472,2.472,0,0,1,185.116,368.585Z" transform="translate(-1365.696 1365.135)"/><path d="M0,0H1.646V1.646H0Z" transform="translate(-1181.748 1731.25) rotate(-45)"/><path d="M61,60h4.939v1.646H61Z" transform="translate(-1251.736 1651.653)"/><path d="M361,60h4.939v1.646H361Z" transform="translate(-1536.364 1651.653)"/><path d="M27.007,0H15.877V6.585H11.13V0H0V8.232H3.218v.24A4.1,4.1,0,0,0,5.7,12.293l5.425,2.258V18.11h4.747V14.551L21.3,12.293a4.1,4.1,0,0,0,2.487-3.821v-.24h3.218ZM1.582,1.646H9.547V6.585H7.965V7.723L5.778,6.585h-4.2ZM22.207,8.472a2.459,2.459,0,0,1-1.492,2.293l-6.42,2.672v3.027H12.712V13.437l-6.42-2.672A2.459,2.459,0,0,1,4.8,8.472v-.24h.6l4.143,2.155V8.232h7.912v2.155L21.6,8.232h.6Zm3.218-1.887h-4.2L19.042,7.723V6.585H17.459V1.646h7.965Z" transform="translate(-1194.083 1708.36)"/></g></svg>