<svg xmlns="http://www.w3.org/2000/svg" width="26.188" height="26.188" viewBox="0 0 26.188 26.188"><path d="M24.848,10.346l-1.838-.312a10.379,10.379,0,0,0-.739-1.783l1.083-1.515a1.613,1.613,0,0,0-.175-2.084l-1.63-1.63a1.606,1.606,0,0,0-1.143-.476,1.59,1.59,0,0,0-.935.3L17.949,3.929a10.271,10.271,0,0,0-1.849-.76l-.306-1.816A1.616,1.616,0,0,0,14.2,0h-2.3a1.616,1.616,0,0,0-1.6,1.351l-.317,1.86A10.123,10.123,0,0,0,8.2,3.962L6.7,2.879a1.616,1.616,0,0,0-2.084.175L2.976,4.684A1.619,1.619,0,0,0,2.8,6.768L3.9,8.305a10.138,10.138,0,0,0-.728,1.789L1.351,10.4A1.616,1.616,0,0,0,0,12v2.3a1.616,1.616,0,0,0,1.351,1.6l1.86.317a10.123,10.123,0,0,0,.749,1.778l-1.078,1.5a1.613,1.613,0,0,0,.175,2.084l1.63,1.63a1.606,1.606,0,0,0,1.143.476,1.59,1.59,0,0,0,.935-.3L8.3,22.288A10.349,10.349,0,0,0,10.033,23l.306,1.838a1.616,1.616,0,0,0,1.6,1.351h2.309a1.616,1.616,0,0,0,1.6-1.351L16.155,23a10.379,10.379,0,0,0,1.783-.739l1.515,1.083a1.606,1.606,0,0,0,.941.3h0a1.606,1.606,0,0,0,1.143-.476l1.63-1.63a1.619,1.619,0,0,0,.175-2.084L22.26,17.934A10.3,10.3,0,0,0,23,16.15l1.838-.306a1.616,1.616,0,0,0,1.351-1.6v-2.3A1.6,1.6,0,0,0,24.848,10.346Zm-.126,3.9a.142.142,0,0,1-.12.142l-2.3.383a.734.734,0,0,0-.591.542,8.757,8.757,0,0,1-.952,2.292.74.74,0,0,0,.033.8l1.351,1.9a.149.149,0,0,1-.016.186L20.5,22.13a.139.139,0,0,1-.1.044.134.134,0,0,1-.082-.027l-1.9-1.351a.739.739,0,0,0-.8-.033,8.758,8.758,0,0,1-2.292.952.726.726,0,0,0-.542.591l-.388,2.3a.142.142,0,0,1-.142.12h-2.3a.142.142,0,0,1-.142-.12l-.383-2.3a.734.734,0,0,0-.542-.591,9.094,9.094,0,0,1-2.243-.919.757.757,0,0,0-.372-.1.72.72,0,0,0-.427.137L5.919,22.2a.163.163,0,0,1-.082.027.147.147,0,0,1-.1-.044L4.1,20.549a.148.148,0,0,1-.016-.186l1.346-1.887a.749.749,0,0,0,.033-.81A8.675,8.675,0,0,1,4.5,15.379a.749.749,0,0,0-.591-.542L1.6,14.443a.142.142,0,0,1-.12-.142V12a.142.142,0,0,1,.12-.142l2.281-.383a.74.74,0,0,0,.6-.547,8.749,8.749,0,0,1,.935-2.3.73.73,0,0,0-.038-.8L4.01,5.915a.149.149,0,0,1,.016-.186L5.657,4.1a.139.139,0,0,1,.1-.044.134.134,0,0,1,.082.027L7.73,5.428a.749.749,0,0,0,.81.033A8.675,8.675,0,0,1,10.826,4.5a.749.749,0,0,0,.542-.591l.394-2.314a.142.142,0,0,1,.142-.12h2.3a.142.142,0,0,1,.142.12l.383,2.281a.74.74,0,0,0,.547.6,8.88,8.88,0,0,1,2.347.963.74.74,0,0,0,.8-.033l1.887-1.357a.163.163,0,0,1,.082-.027.147.147,0,0,1,.1.044l1.63,1.63a.148.148,0,0,1,.016.186L20.8,7.775a.739.739,0,0,0-.033.8,8.758,8.758,0,0,1,.952,2.292.726.726,0,0,0,.591.542l2.3.388a.142.142,0,0,1,.12.142v2.3Z" transform="translate(0 -0.001)"/><path d="M141.761,136a5.661,5.661,0,1,0,5.661,5.661A5.665,5.665,0,0,0,141.761,136Zm0,9.842a4.181,4.181,0,1,1,4.181-4.181A4.184,4.184,0,0,1,141.761,145.843Z" transform="translate(-128.664 -128.571)"/></svg>