<svg xmlns="http://www.w3.org/2000/svg" width="27.007" height="18.11" viewBox="0 0 27.007 18.11"><path d="M27.007,0H15.877V6.585H11.13V0H0V8.232H3.218v.24A4.1,4.1,0,0,0,5.7,12.293l5.425,2.258V18.11h4.747V14.551L21.3,12.293a4.1,4.1,0,0,0,2.487-3.821v-.24h3.218ZM1.582,1.646H9.547V6.585H7.965V7.723L5.778,6.585h-4.2ZM22.207,8.472a2.459,2.459,0,0,1-1.492,2.293l-6.42,2.672v3.027H12.712V13.437l-6.42-2.672A2.459,2.459,0,0,1,4.8,8.472v-.24h.6l4.143,2.155V8.232h7.912v2.155L21.6,8.232h.6Zm3.218-1.887h-4.2L19.042,7.723V6.585H17.459V1.646h7.965Z"/></svg>