<svg xmlns="http://www.w3.org/2000/svg" width="23.663" height="23.666" viewBox="0 0 23.663 23.666"><defs><style>.a{stroke:#000;stroke-width:0.2px;}</style></defs><g transform="translate(1192.002 -1619.124)"><path class="a" d="M30.341,42.046h.682V40.682h.341V40H30v.682h.341Z" transform="translate(-1210.853 1594.3)"/><path class="a" d="M46,39h.682v.682H46Z" transform="translate(-1220.621 1594.762)"/><path class="a" d="M46,35h.682v.682H46Z" transform="translate(-1220.621 1597.191)"/><path class="a" d="M16,35h.682v.682H16Z" transform="translate(-1202.403 1597.191)"/><path class="a" d="M16,43h.682v.682H16Z" transform="translate(-1202.403 1592.333)"/><path class="a" d="M19.023,22.681h2.046v1.28h-.682a.391.391,0,0,0-.341.427v5.121a.391.391,0,0,0,.341.427h4.774a.391.391,0,0,0,.341-.427V24.388a.391.391,0,0,0-.341-.427h-.682v-1.28h2.046a1.175,1.175,0,0,0,1.023-1.28V16.28A1.175,1.175,0,0,0,26.525,15h-7.5A1.175,1.175,0,0,0,18,16.28V21.4A1.175,1.175,0,0,0,19.023,22.681Zm5.8,6.4H20.728V24.815H24.82ZM23.8,23.961H21.751v-1.28H23.8Zm2.728-2.134H21.814a1.067,1.067,0,0,1,.96-.853v-.853A1.856,1.856,0,0,0,21.1,21.828h-2.08a.392.392,0,0,1-.341-.427V19.267h8.184V21.4A.392.392,0,0,1,26.525,21.828Zm-7.843-3.414V17.56h8.184v.853Zm.341-2.56h7.5a.392.392,0,0,1,.341.427v.427H18.682V16.28A.392.392,0,0,1,19.023,15.853Z" transform="translate(-1202.945 1608.664)"/><path class="a" d="M42,39h.682v.682H42Z" transform="translate(-1218.192 1594.762)"/><path class="a" d="M20,39h.682v.682H20Z" transform="translate(-1204.832 1594.762)"/><path class="a" d="M16,39h.682v.682H16Z" transform="translate(-1202.403 1594.762)"/><path class="a" d="M2.356,6.693a.391.391,0,0,0-.347.47l1.318,6.26A16.421,16.421,0,0,0,13.592,25.435a.393.393,0,0,0,.278,0A16.421,16.421,0,0,0,24.134,13.423l1.318-6.26a.391.391,0,0,0-.347-.47l-.565-.052A15.786,15.786,0,0,1,17.772,4.4L13.935,2.057a.392.392,0,0,0-.408,0L9.69,4.4a15.791,15.791,0,0,1-6.768,2.24ZM10.1,5.07,13.73,2.849,17.364,5.07a16.578,16.578,0,0,0,7.1,2.351l.128.011-1.227,5.83A15.641,15.641,0,0,1,13.73,24.65,15.641,15.641,0,0,1,4.092,13.262L2.864,7.432l.127-.011A16.592,16.592,0,0,0,10.1,5.07Z" transform="translate(-1193.901 1617.231)"/><path class="a" d="M46,43h.682v.682H46Z" transform="translate(-1220.621 1592.333)"/></g></svg>