<svg xmlns="http://www.w3.org/2000/svg" width="35.5" height="56.053" viewBox="0 0 35.5 56.053"><defs><style>.a{fill:#fc9fda;}</style></defs><g transform="translate(-88)"><g transform="translate(88)"><path class="a" d="M118.829,0H92.671A4.677,4.677,0,0,0,88,4.671V51.382a4.677,4.677,0,0,0,4.671,4.671h26.158a4.677,4.677,0,0,0,4.671-4.671V4.671A4.677,4.677,0,0,0,118.829,0Zm2.8,51.382a2.8,2.8,0,0,1-2.8,2.8H92.671a2.8,2.8,0,0,1-2.8-2.8V46.711h31.763Zm0-6.539H89.868V7.474h31.763Zm0-39.237H89.868V4.671a2.8,2.8,0,0,1,2.8-2.8h26.158a2.8,2.8,0,0,1,2.8,2.8Z" transform="translate(-88)"/></g><g transform="translate(102.947 47.645)"><path class="a" d="M218.8,408a2.8,2.8,0,1,0,2.8,2.8A2.8,2.8,0,0,0,218.8,408Zm0,3.737a.934.934,0,1,1,.934-.934A.934.934,0,0,1,218.8,411.737Z" transform="translate(-216 -408)"/></g><g transform="translate(103.882 2.803)"><g transform="translate(0)"><path class="a" d="M226.8,24h-1.868a.934.934,0,0,0,0,1.868H226.8a.934.934,0,0,0,0-1.868Z" transform="translate(-224 -24)"/></g></g></g></svg>