<svg xmlns="http://www.w3.org/2000/svg" width="187" height="187" viewBox="0 0 187 187"><defs><style>.a{fill:#43d88b;stroke:#d8f7e7;}</style></defs><g transform="translate(0.5 0.5)"><path class="a" d="M205.5,0H137.3A9.3,9.3,0,0,0,128,9.3V120.9a9.3,9.3,0,0,0,9.3,9.3h18.6V124H137.3a3.1,3.1,0,0,1-3.1-3.1V9.3a3.1,3.1,0,0,1,3.1-3.1h68.2a3.1,3.1,0,0,1,3.1,3.1V120.9a3.1,3.1,0,0,1-3.1,3.1H186.9v6.2h18.6a9.3,9.3,0,0,0,9.3-9.3V9.3A9.3,9.3,0,0,0,205.5,0Zm0,0" transform="translate(-78.4)"/><path class="a" d="M9.3,137.4H43.4v-6.2H9.3a3.1,3.1,0,0,1-3.1-3.1V41.3a3.1,3.1,0,0,1,3.1-3.1H43.4V32H9.3A9.3,9.3,0,0,0,0,41.3v86.8A9.3,9.3,0,0,0,9.3,137.4Zm0,0" transform="translate(0 -19.6)"/><path class="a" d="M192,40h6.2v6.2H192Zm0,0" transform="translate(-117.6 -24.5)"/><path class="a" d="M224,40h24.8v6.2H224Zm0,0" transform="translate(-137.2 -24.5)"/><path class="a" d="M168,80h6.2V92.4H168Zm0,0" transform="translate(-102.9 -49)"/><path class="a" d="M200,80h6.2V92.4H200Zm0,0" transform="translate(-122.5 -49)"/><path class="a" d="M232,80h6.2V92.4H232Zm0,0" transform="translate(-142.1 -49)"/><path class="a" d="M264,80h6.2V92.4H264Zm0,0" transform="translate(-161.7 -49)"/><path class="a" d="M296,80h6.2V92.4H296Zm0,0" transform="translate(-181.3 -49)"/><path class="a" d="M232,136h21.7v6.2H232Zm0,0" transform="translate(-142.1 -83.3)"/><path class="a" d="M201.3,250.6h18.6a9.3,9.3,0,1,0,0-18.6H201.3a9.3,9.3,0,1,0,0,18.6Zm0-12.4h18.6a3.1,3.1,0,1,1,0,6.2H201.3a3.1,3.1,0,1,1,0-6.2Zm0,0" transform="translate(-117.6 -142.1)"/><path class="a" d="M88,64h9.3v6.2H88Zm0,0" transform="translate(-53.9 -39.2)"/><path class="a" d="M32,104h6.2v9.3H32Zm0,0" transform="translate(-19.6 -63.7)"/><path class="a" d="M64,104h6.2v9.3H64Zm0,0" transform="translate(-39.2 -63.7)"/><path class="a" d="M96,104h6.2v9.3H96Zm0,0" transform="translate(-58.8 -63.7)"/><path class="a" d="M56,64h6.2v6.2H56Zm0,0" transform="translate(-34.3 -39.2)"/><path class="a" d="M49.3,234.6H67.9v-6.2H49.3a3.1,3.1,0,1,1,0-6.2H67.9V216H49.3a9.3,9.3,0,0,0,0,18.6Zm0,0" transform="translate(-24.5 -132.3)"/><path class="a" d="M402.1,32H368v6.2h34.1a3.1,3.1,0,0,1,3.1,3.1v86.8a3.1,3.1,0,0,1-3.1,3.1H368v6.2h34.1a9.3,9.3,0,0,0,9.3-9.3V41.3A9.3,9.3,0,0,0,402.1,32Zm0,0" transform="translate(-225.4 -19.6)"/><path class="a" d="M368,64h21.7v6.2H368Zm0,0" transform="translate(-225.4 -39.2)"/><path class="a" d="M432,104h6.2v9.3H432Zm0,0" transform="translate(-264.6 -63.7)"/><path class="a" d="M400,104h6.2v9.3H400Zm0,0" transform="translate(-245 -63.7)"/><path class="a" d="M368,104h6.2v9.3H368Zm0,0" transform="translate(-225.4 -63.7)"/><path class="a" d="M368,216v6.2h18.6a3.1,3.1,0,1,1,0,6.2H368v6.2h18.6a9.3,9.3,0,1,0,0-18.6Zm0,0" transform="translate(-225.4 -132.3)"/><path class="a" d="M237.5,364.189V330.42a9.561,9.561,0,0,0-7.75-9.507A9.346,9.346,0,0,0,222.189,323c-.062.05-.124.1-.183.159a9.28,9.28,0,0,0-12.4,0,9.658,9.658,0,0,0-9.3-1.845v-15.7a9.559,9.559,0,0,0-7.75-9.507,9.3,9.3,0,0,0-10.856,9.176v37.925l-8.227-4.935a8.511,8.511,0,0,0-8.243-.31l-.493.245a8.574,8.574,0,0,0-1.146,14.645L183,366.718a3.087,3.087,0,0,0,1.8.571h49.6a3.1,3.1,0,0,0,3.1-3.1Zm-6.2-3.1H185.791l-18.6-13.284a2.379,2.379,0,0,1,.31-4.058l.493-.241a2.355,2.355,0,0,1,2.278.086l12.924,7.75a3.1,3.1,0,0,0,4.7-2.653v-43.4a3.1,3.1,0,0,1,3.642-3.053,3.356,3.356,0,0,1,2.558,3.385v24.469a3.1,3.1,0,0,0,6.2,0,3.1,3.1,0,0,1,6.2,0,3.1,3.1,0,0,0,6.2,0,3.1,3.1,0,1,1,6.2,0,3.1,3.1,0,0,0,6.2,0,3.1,3.1,0,0,1,3.642-3.053,3.356,3.356,0,0,1,2.558,3.385Zm0,0" transform="translate(-97.999 -181.289)"/><path class="a" d="M192,136h9.3v6.2H192Zm0,0" transform="translate(-117.6 -83.3)"/><path class="a" d="M192,168h37.2v6.2H192Zm0,0" transform="translate(-117.6 -102.9)"/><path class="a" d="M208,200h24.8v6.2H208Zm0,0" transform="translate(-127.4 -122.5)"/><path class="a" d="M64,152H82.6v6.2H64Zm0,0" transform="translate(-39.2 -93.1)"/><path class="a" d="M80,184H92.4v6.2H80Zm0,0" transform="translate(-49 -112.7)"/><path class="a" d="M368,152h15.5v6.2H368Zm0,0" transform="translate(-225.4 -93.1)"/><path class="a" d="M368,184h9.3v6.2H368Zm0,0" transform="translate(-225.4 -112.7)"/></g></svg>