<svg xmlns="http://www.w3.org/2000/svg" width="53.774" height="71.622" viewBox="0 0 53.774 71.622"><defs><style>.a{fill:#817efc;}</style></defs><path class="a" d="M48.271,58.272h-.1a5.523,5.523,0,0,0-3.723,1.415,5.806,5.806,0,0,0-5.391-3.934,5.593,5.593,0,0,0-4,1.719,5.723,5.723,0,0,0-5.107-3.266h-.107a5.243,5.243,0,0,0-3.288,1.1V41.427a5.954,5.954,0,0,0-5.785-6.08A5.943,5.943,0,0,0,15,41.423l-.026,27.526L13.42,67.057a7.857,7.857,0,0,0-5.552-2.916,7.731,7.731,0,0,0-5.792,2.05L.72,67.314A1.2,1.2,0,0,0,.42,68.8L13.6,94.128a13.587,13.587,0,0,0,11.965,7.517H40.414v-.013c7.53,0,13.635-6.534,13.643-14.557,0-3.59-.011-6.265-.008-8.434.008-5.8,0-7.942-.013-14.334a5.914,5.914,0,0,0-5.765-6.036Zm3.351,20.362c0,2.169-.006,4.855-.009,8.445-.006,6.7-5.062,12.157-11.269,12.157H25.564a11.187,11.187,0,0,1-9.827-6.22L3.007,68.554l.628-.524c.016-.013.031-.028.046-.042A5.348,5.348,0,0,1,7.7,66.545a5.467,5.467,0,0,1,3.857,2.043l3.688,4.487a1.2,1.2,0,0,0,2.135-.764L17.4,41.424a3.547,3.547,0,0,1,3.376-3.668,3.547,3.547,0,0,1,3.374,3.671V60.051c0,.065,0,.13,0,.2,0,.028,0,.057,0,.085v7.962a1.2,1.2,0,1,0,2.41,0v-8.2a3.378,3.378,0,0,1,3.288-3.476h.107a3.517,3.517,0,0,1,3.382,3.633v7.286a1.2,1.2,0,1,0,2.41,0V61.817a3.331,3.331,0,1,1,6.626,0V67.21a1.2,1.2,0,0,0,2.41,0V64.29a3.5,3.5,0,0,1,3.389-3.609h.1a3.5,3.5,0,0,1,3.347,3.629c.015,6.387.012,8.525,0,14.323Zm0,0" transform="translate(-0.284 -30.024)"/><path class="a" d="M65.814,11.923a1.2,1.2,0,0,0,1.2-1.2,8.349,8.349,0,0,1,16.7,0,1.2,1.2,0,1,0,2.41,0,10.759,10.759,0,0,0-21.517,0A1.2,1.2,0,0,0,65.814,11.923Zm0,0" transform="translate(-54.922)"/></svg>