<svg xmlns="http://www.w3.org/2000/svg" xmlns:xlink="http://www.w3.org/1999/xlink" width="409.858" height="199.873" viewBox="0 0 409.858 199.873"><defs><style>.a,.d{fill:none;stroke-linecap:round;stroke-width:2px;}.a{stroke:#4791ff;}.b{opacity:0.22;fill:url(#a);}.c{opacity:0.24;fill:url(#b);}.d{stroke:#02bc77;stroke-linejoin:round;}</style><linearGradient id="a" x1="0.5" x2="0.5" y2="1" gradientUnits="objectBoundingBox"><stop offset="0" stop-color="#4791ff" stop-opacity="0.2"/><stop offset="1" stop-color="#468ffd" stop-opacity="0"/></linearGradient><linearGradient id="b" x1="0.5" x2="0.5" y2="1" gradientUnits="objectBoundingBox"><stop offset="0" stop-color="#02bc77" stop-opacity="0.18"/><stop offset="1" stop-color="#02bc77" stop-opacity="0.051"/></linearGradient></defs><g transform="translate(-355.916 -307.398)"><g transform="translate(357.288 320.073)"><path class="a" d="M3195.454-22332.131s22.657-13.641,36.728-13.641,40.142,9.861,60.207,0,21.3-26.1,39.609-25.824c32.257-1.58,24.6,21.08,48.57,17.854s29.865-22.326,47.323-30.762,42.994-10.053,62.539-5.742,48.57,28.65,69.524,28.91c25.166.246,14.269-24.352,42.591-23.168" transform="translate(-3195.454 22392.555)"/><path class="b" d="M3602.542-22384.5c-28.322-1.184-17.425,23.414-42.591,23.168-20.954-.26-49.979-24.605-69.524-28.91s-45.078-2.686-62.538,5.742-23.349,27.539-47.323,30.762-16.313-19.434-48.57-17.854c-18.308-.277-19.544,15.969-39.608,25.824s-46.135,0-60.207,0-36.727,13.641-36.727,13.641v118.066a22.1,22.1,0,0,0,4.162,5.086,24.534,24.534,0,0,0,5.795,3.51h383.653s7.177-.455,10.546-3.705,2.932-9.3,2.932-9.3Z" transform="translate(-3195.454 22392.555)"/></g><path class="c" d="M3603.234-22392.562s-21.722,30.426-58,30.426-51.1,43.268-74.065,41.777c-22.962-1.516-31.92-28.5-55.926-23.074s-27.292,24.791-44.774,38.975c-17.485,14.168-43.054,16.91-62.626,9.666s-48.465-25.123-69.449-25.566c-25.2-.408-14.463,17.891-42.826,15.9-.752,31.068,0,101.469,0,101.469a18.586,18.586,0,0,0,4.471,5.6,18.33,18.33,0,0,0,6.5,2.926h385.441s5.529-.83,8.343-3.838,2.914-8.189,2.914-8.189Z" transform="translate(-2838.235 22701.738)"/><path class="d" d="M3602.544-22392.562s-21.691,30.426-57.917,30.426-51.03,43.268-73.96,41.777c-22.93-1.516-31.875-28.5-55.848-23.074s-27.253,24.791-44.711,38.975c-17.461,14.168-42.994,16.91-62.539,9.666s-48.4-25.123-69.35-25.566c-25.166-.408-14.443,17.891-42.765,15.9" transform="translate(-2838.166 22701.355)"/></g></svg>