<svg xmlns="http://www.w3.org/2000/svg" width="50.08" height="50.42" viewBox="0 0 50.08 50.42"><defs><style>.a{fill:#fdc538;}</style></defs><g transform="translate(-0.679 2)"><g transform="translate(0.679 -2)"><g transform="translate(0)"><path class="a" d="M227.3,2.074V22.531h27.162V-2Zm25.464,18.759H229V3.517L252.766.037Z" transform="translate(-204.384 2)"/><path class="a" d="M.679,60.508H21.9V39.967L.679,43.108Zm1.7-15.958L20.2,41.919V58.811H2.377Z" transform="translate(-0.679 -35.723)"/><path class="a" d="M227.3,279.737l27.162,4.074V259.875H227.3Zm1.7-18.165h23.767v20.287L229,278.294Z" transform="translate(-204.384 -233.392)"/><path class="a" d="M.679,276.427l21.22,3.141V259.875H.679Zm1.7-14.854H20.2v16.043L2.377,274.984V261.573Z" transform="translate(-0.679 -233.392)"/></g></g></g></svg>